<svg xmlns="http://www.w3.org/2000/svg" xmlns:xlink="http://www.w3.org/1999/xlink" width="100" zoomAndPan="magnify" viewBox="0 0 75 30.000001" height="40" preserveAspectRatio="xMidYMid meet" version="1.0"><defs><g/><clipPath id="70949f2cf2"><path d="M 9 21 L 25 21 L 25 25.253906 L 9 25.253906 Z M 9 21 " clip-rule="nonzero"/></clipPath><clipPath id="d570788785"><path d="M 4.113281 7 L 28.789062 7 L 28.789062 23 L 4.113281 23 Z M 4.113281 7 " clip-rule="nonzero"/></clipPath><clipPath id="a14d11ba4a"><path d="M 10 2.027344 L 23 2.027344 L 23 15 L 10 15 Z M 10 2.027344 " clip-rule="nonzero"/></clipPath></defs><g clip-path="url(#70949f2cf2)"><path fill="#ffffff" d="M 23.617188 24.425781 L 19.714844 24.425781 L 19.714844 21.765625 L 13.507812 21.765625 L 13.507812 24.425781 L 9.605469 24.425781 C 9.375 24.425781 9.191406 24.609375 9.191406 24.839844 C 9.191406 25.066406 9.375 25.253906 9.605469 25.253906 L 23.617188 25.253906 C 23.84375 25.253906 24.03125 25.070312 24.03125 24.839844 C 24.03125 24.609375 23.84375 24.425781 23.617188 24.425781 Z M 23.617188 24.425781 " fill-opacity="1" fill-rule="nonzero"/></g><g clip-path="url(#d570788785)"><path fill="#ffffff" d="M 26.554688 7.863281 L 23.738281 7.863281 L 23.738281 8.691406 L 26.554688 8.691406 C 27.507812 8.691406 28.28125 9.464844 28.28125 10.414062 L 28.28125 19.628906 C 28.28125 20.578125 27.507812 21.351562 26.554688 21.351562 L 6.664062 21.351562 C 5.714844 21.351562 4.941406 20.578125 4.941406 19.628906 L 4.941406 10.414062 C 4.941406 9.464844 5.714844 8.691406 6.664062 8.691406 L 9.480469 8.691406 L 9.480469 7.863281 L 6.664062 7.863281 C 5.257812 7.863281 4.113281 9.007812 4.113281 10.414062 L 4.113281 19.628906 C 4.113281 21.035156 5.257812 22.179688 6.664062 22.179688 L 26.554688 22.179688 C 27.964844 22.179688 29.109375 21.035156 29.109375 19.628906 L 29.109375 10.414062 C 29.109375 9.007812 27.964844 7.863281 26.554688 7.863281 Z M 26.554688 7.863281 " fill-opacity="1" fill-rule="nonzero"/></g><g clip-path="url(#a14d11ba4a)"><path fill="#ffffff" d="M 22.230469 6.90625 L 21.441406 6.90625 C 21.441406 6.898438 21.441406 6.894531 21.4375 6.890625 C 21.4375 6.886719 21.433594 6.882812 21.433594 6.878906 C 21.425781 6.839844 21.414062 6.804688 21.402344 6.765625 C 21.394531 6.738281 21.386719 6.710938 21.375 6.683594 C 21.371094 6.65625 21.359375 6.632812 21.355469 6.609375 C 21.347656 6.597656 21.34375 6.582031 21.339844 6.570312 C 21.328125 6.539062 21.316406 6.503906 21.304688 6.472656 C 21.289062 6.433594 21.277344 6.394531 21.261719 6.359375 C 21.246094 6.320312 21.230469 6.28125 21.214844 6.246094 C 21.199219 6.207031 21.183594 6.171875 21.167969 6.132812 C 21.152344 6.101562 21.136719 6.070312 21.125 6.039062 C 21.105469 6 21.082031 5.957031 21.0625 5.914062 C 21.042969 5.882812 21.027344 5.847656 21.007812 5.816406 C 21.007812 5.808594 21.003906 5.804688 21 5.800781 C 20.984375 5.769531 20.96875 5.738281 20.949219 5.707031 C 20.945312 5.699219 20.941406 5.691406 20.933594 5.683594 L 21.492188 5.125 C 21.703125 4.914062 21.703125 4.570312 21.492188 4.359375 L 20.441406 3.304688 C 20.433594 3.300781 20.425781 3.292969 20.417969 3.285156 C 20.207031 3.09375 19.878906 3.101562 19.675781 3.304688 L 19.117188 3.863281 C 19.109375 3.859375 19.101562 3.855469 19.09375 3.851562 C 19.0625 3.832031 19.03125 3.816406 19 3.800781 C 18.996094 3.796875 18.992188 3.792969 18.984375 3.789062 C 18.953125 3.773438 18.917969 3.753906 18.886719 3.738281 C 18.84375 3.714844 18.800781 3.695312 18.761719 3.675781 C 18.730469 3.660156 18.699219 3.648438 18.667969 3.632812 C 18.628906 3.617188 18.59375 3.601562 18.554688 3.585938 C 18.519531 3.570312 18.480469 3.554688 18.441406 3.539062 C 18.40625 3.523438 18.367188 3.507812 18.328125 3.496094 C 18.296875 3.484375 18.261719 3.472656 18.230469 3.460938 C 18.21875 3.457031 18.203125 3.453125 18.191406 3.445312 C 18.167969 3.4375 18.144531 3.429688 18.117188 3.421875 C 18.089844 3.414062 18.0625 3.40625 18.035156 3.398438 C 17.996094 3.386719 17.960938 3.375 17.921875 3.367188 C 17.921875 3.367188 17.917969 3.363281 17.914062 3.363281 C 17.914062 3.363281 17.910156 3.363281 17.910156 3.363281 C 17.90625 3.359375 17.902344 3.359375 17.894531 3.359375 L 17.894531 2.570312 C 17.894531 2.4375 17.851562 2.320312 17.773438 2.226562 C 17.675781 2.105469 17.523438 2.027344 17.355469 2.027344 L 15.867188 2.027344 C 15.699219 2.027344 15.546875 2.105469 15.449219 2.226562 C 15.371094 2.320312 15.328125 2.441406 15.328125 2.570312 L 15.328125 3.359375 C 15.320312 3.359375 15.316406 3.359375 15.3125 3.363281 C 15.308594 3.363281 15.304688 3.367188 15.296875 3.367188 C 15.261719 3.375 15.226562 3.386719 15.1875 3.398438 C 15.160156 3.40625 15.132812 3.414062 15.101562 3.425781 C 15.078125 3.429688 15.054688 3.441406 15.03125 3.445312 C 15.015625 3.453125 15.003906 3.457031 14.992188 3.460938 C 14.960938 3.472656 14.925781 3.484375 14.894531 3.496094 C 14.855469 3.511719 14.816406 3.523438 14.777344 3.539062 C 14.742188 3.554688 14.703125 3.570312 14.664062 3.585938 C 14.628906 3.601562 14.589844 3.617188 14.554688 3.632812 C 14.523438 3.648438 14.492188 3.664062 14.460938 3.675781 C 14.417969 3.695312 14.378906 3.714844 14.335938 3.738281 C 14.300781 3.757812 14.269531 3.773438 14.234375 3.792969 C 14.230469 3.792969 14.226562 3.796875 14.21875 3.800781 C 14.191406 3.816406 14.160156 3.832031 14.128906 3.851562 C 14.121094 3.855469 14.113281 3.859375 14.101562 3.867188 L 13.542969 3.308594 C 13.339844 3.101562 13.015625 3.097656 12.800781 3.285156 C 12.792969 3.292969 12.785156 3.300781 12.78125 3.308594 L 11.726562 4.359375 C 11.515625 4.570312 11.515625 4.914062 11.726562 5.125 L 12.285156 5.683594 C 12.28125 5.691406 12.277344 5.699219 12.269531 5.707031 C 12.253906 5.738281 12.238281 5.769531 12.21875 5.800781 C 12.214844 5.804688 12.214844 5.8125 12.210938 5.816406 C 12.195312 5.847656 12.175781 5.882812 12.160156 5.914062 C 12.136719 5.957031 12.117188 6 12.097656 6.039062 C 12.082031 6.070312 12.066406 6.101562 12.054688 6.132812 C 12.039062 6.171875 12.019531 6.207031 12.003906 6.246094 C 11.988281 6.28125 11.972656 6.320312 11.960938 6.359375 C 11.945312 6.394531 11.929688 6.433594 11.914062 6.472656 C 11.902344 6.503906 11.890625 6.539062 11.878906 6.570312 C 11.875 6.582031 11.871094 6.597656 11.867188 6.609375 C 11.859375 6.632812 11.851562 6.65625 11.84375 6.683594 C 11.835938 6.710938 11.828125 6.738281 11.816406 6.765625 C 11.808594 6.804688 11.796875 6.839844 11.785156 6.878906 C 11.785156 6.882812 11.785156 6.886719 11.785156 6.890625 C 11.78125 6.894531 11.78125 6.902344 11.777344 6.90625 L 10.988281 6.90625 C 10.691406 6.90625 10.449219 7.148438 10.449219 7.445312 L 10.449219 8.933594 C 10.449219 9.234375 10.691406 9.476562 10.988281 9.476562 L 11.777344 9.476562 C 11.78125 9.480469 11.78125 9.484375 11.785156 9.492188 C 11.785156 9.496094 11.785156 9.5 11.785156 9.503906 C 11.796875 9.539062 11.808594 9.578125 11.816406 9.613281 C 11.828125 9.640625 11.835938 9.671875 11.84375 9.699219 C 11.851562 9.722656 11.859375 9.75 11.867188 9.773438 C 11.871094 9.785156 11.875 9.796875 11.878906 9.808594 C 11.890625 9.84375 11.902344 9.875 11.914062 9.910156 C 11.929688 9.949219 11.945312 9.984375 11.960938 10.023438 C 11.972656 10.0625 11.988281 10.097656 12.003906 10.136719 C 12.019531 10.171875 12.039062 10.210938 12.054688 10.246094 C 12.066406 10.277344 12.082031 10.308594 12.097656 10.339844 C 12.117188 10.382812 12.136719 10.425781 12.160156 10.464844 C 12.175781 10.5 12.195312 10.53125 12.210938 10.566406 C 12.214844 10.570312 12.214844 10.574219 12.21875 10.582031 C 12.238281 10.613281 12.253906 10.644531 12.269531 10.671875 C 12.277344 10.683594 12.28125 10.691406 12.285156 10.699219 L 11.726562 11.257812 C 11.515625 11.46875 11.515625 11.8125 11.726562 12.023438 L 12.78125 13.074219 C 12.992188 13.285156 13.332031 13.285156 13.542969 13.074219 L 14.101562 12.515625 C 14.109375 12.519531 14.121094 12.527344 14.128906 12.53125 C 14.15625 12.546875 14.1875 12.5625 14.21875 12.582031 C 14.226562 12.585938 14.230469 12.589844 14.234375 12.589844 C 14.269531 12.609375 14.300781 12.625 14.335938 12.640625 C 14.378906 12.664062 14.417969 12.683594 14.460938 12.703125 C 14.492188 12.71875 14.523438 12.734375 14.554688 12.746094 C 14.589844 12.765625 14.628906 12.78125 14.664062 12.796875 C 14.703125 12.8125 14.738281 12.828125 14.777344 12.84375 C 14.816406 12.859375 14.855469 12.871094 14.890625 12.886719 C 14.925781 12.898438 14.957031 12.910156 14.992188 12.921875 C 15.003906 12.925781 15.015625 12.929688 15.027344 12.933594 C 15.054688 12.941406 15.078125 12.949219 15.101562 12.957031 C 15.132812 12.964844 15.160156 12.976562 15.1875 12.984375 C 15.222656 12.992188 15.261719 13.003906 15.296875 13.015625 C 15.300781 13.015625 15.308594 13.015625 15.3125 13.019531 C 15.316406 13.019531 15.320312 13.023438 15.328125 13.023438 L 15.328125 13.8125 C 15.328125 14.109375 15.570312 14.351562 15.867188 14.351562 L 17.355469 14.351562 C 17.652344 14.351562 17.894531 14.109375 17.894531 13.8125 L 17.894531 13.023438 C 17.902344 13.023438 17.90625 13.019531 17.910156 13.019531 C 17.914062 13.015625 17.917969 13.015625 17.921875 13.015625 C 17.960938 13.003906 17.996094 12.992188 18.035156 12.984375 C 18.0625 12.976562 18.089844 12.964844 18.117188 12.957031 C 18.144531 12.949219 18.167969 12.941406 18.191406 12.933594 C 18.203125 12.929688 18.21875 12.925781 18.230469 12.921875 C 18.261719 12.910156 18.296875 12.898438 18.328125 12.886719 C 18.367188 12.871094 18.40625 12.859375 18.441406 12.84375 C 18.480469 12.828125 18.519531 12.8125 18.554688 12.796875 C 18.59375 12.78125 18.628906 12.765625 18.667969 12.746094 C 18.699219 12.734375 18.730469 12.71875 18.761719 12.703125 C 18.800781 12.683594 18.84375 12.664062 18.886719 12.640625 C 18.917969 12.625 18.953125 12.609375 18.984375 12.589844 C 18.992188 12.589844 18.996094 12.585938 19 12.582031 C 19.03125 12.5625 19.0625 12.546875 19.09375 12.53125 C 19.101562 12.527344 19.109375 12.519531 19.117188 12.515625 L 19.675781 13.074219 C 19.886719 13.285156 20.230469 13.285156 20.441406 13.074219 L 21.496094 12.023438 C 21.707031 11.8125 21.707031 11.46875 21.496094 11.257812 L 20.9375 10.699219 C 20.941406 10.691406 20.945312 10.683594 20.949219 10.671875 C 20.96875 10.644531 20.984375 10.613281 21 10.582031 C 21.003906 10.574219 21.007812 10.570312 21.011719 10.566406 C 21.027344 10.53125 21.042969 10.5 21.0625 10.464844 C 21.085938 10.421875 21.105469 10.382812 21.125 10.339844 C 21.136719 10.308594 21.152344 10.277344 21.167969 10.246094 C 21.183594 10.210938 21.199219 10.171875 21.214844 10.136719 C 21.230469 10.097656 21.246094 10.0625 21.261719 10.023438 C 21.277344 9.984375 21.292969 9.949219 21.304688 9.910156 C 21.316406 9.875 21.328125 9.84375 21.339844 9.808594 C 21.34375 9.796875 21.347656 9.785156 21.355469 9.773438 C 21.363281 9.75 21.371094 9.722656 21.378906 9.699219 C 21.386719 9.671875 21.394531 9.640625 21.402344 9.613281 C 21.414062 9.578125 21.425781 9.539062 21.433594 9.503906 C 21.4375 9.5 21.4375 9.496094 21.4375 9.492188 C 21.441406 9.484375 21.441406 9.480469 21.441406 9.476562 L 22.234375 9.476562 C 22.53125 9.476562 22.773438 9.234375 22.773438 8.933594 L 22.773438 7.445312 C 22.773438 7.148438 22.53125 6.90625 22.230469 6.90625 Z M 19.265625 10.765625 C 19.242188 10.789062 19.222656 10.808594 19.199219 10.832031 C 19.152344 10.878906 19.101562 10.925781 19.050781 10.96875 C 19.03125 10.984375 19.011719 11.003906 18.992188 11.019531 C 18.746094 11.226562 18.472656 11.402344 18.183594 11.539062 C 18.160156 11.550781 18.136719 11.558594 18.113281 11.570312 C 18.070312 11.589844 18.027344 11.609375 17.984375 11.625 C 17.953125 11.636719 17.925781 11.644531 17.898438 11.65625 C 17.855469 11.671875 17.8125 11.6875 17.769531 11.703125 C 17.738281 11.710938 17.710938 11.722656 17.683594 11.730469 C 17.652344 11.738281 17.625 11.746094 17.597656 11.753906 C 17.582031 11.757812 17.566406 11.761719 17.554688 11.765625 C 17.539062 11.769531 17.527344 11.773438 17.515625 11.777344 C 17.886719 11.410156 18.191406 10.820312 18.382812 10.089844 C 18.789062 10.164062 19.191406 10.261719 19.582031 10.390625 C 19.582031 10.394531 19.578125 10.398438 19.574219 10.402344 C 19.570312 10.40625 19.566406 10.410156 19.566406 10.414062 C 19.542969 10.445312 19.519531 10.476562 19.492188 10.507812 C 19.445312 10.570312 19.394531 10.628906 19.339844 10.6875 C 19.316406 10.714844 19.289062 10.738281 19.265625 10.765625 Z M 16.609375 11.890625 C 16.597656 11.890625 16.582031 11.890625 16.566406 11.886719 C 16.558594 11.886719 16.550781 11.886719 16.546875 11.886719 C 16.242188 11.859375 15.957031 11.652344 15.710938 11.3125 C 15.480469 10.992188 15.285156 10.554688 15.144531 10.039062 C 15.773438 9.945312 16.414062 9.910156 17.054688 9.941406 C 17.332031 9.953125 17.609375 9.976562 17.882812 10.011719 C 17.949219 10.019531 18.011719 10.027344 18.078125 10.039062 C 17.785156 11.109375 17.253906 11.851562 16.652344 11.886719 C 16.640625 11.890625 16.625 11.890625 16.609375 11.890625 Z M 14.035156 10.847656 C 14.007812 10.820312 13.984375 10.792969 13.957031 10.765625 C 13.929688 10.738281 13.902344 10.710938 13.878906 10.679688 C 13.855469 10.65625 13.832031 10.632812 13.8125 10.609375 C 13.785156 10.574219 13.753906 10.542969 13.726562 10.507812 C 13.703125 10.476562 13.679688 10.445312 13.65625 10.414062 C 13.648438 10.40625 13.644531 10.398438 13.636719 10.390625 C 14.027344 10.265625 14.429688 10.164062 14.835938 10.089844 C 14.964844 10.582031 15.148438 11.007812 15.363281 11.347656 C 15.46875 11.511719 15.585938 11.65625 15.707031 11.777344 C 15.691406 11.773438 15.679688 11.769531 15.667969 11.765625 C 15.652344 11.761719 15.640625 11.757812 15.625 11.753906 C 15.59375 11.746094 15.566406 11.738281 15.539062 11.730469 C 15.507812 11.722656 15.480469 11.710938 15.453125 11.703125 C 15.410156 11.6875 15.367188 11.671875 15.324219 11.65625 C 15.292969 11.648438 15.265625 11.636719 15.238281 11.625 C 15.195312 11.609375 15.152344 11.589844 15.109375 11.570312 C 15.085938 11.558594 15.0625 11.550781 15.039062 11.539062 C 14.917969 11.480469 14.800781 11.417969 14.6875 11.347656 C 14.515625 11.246094 14.351562 11.125 14.199219 10.992188 C 14.171875 10.972656 14.144531 10.949219 14.121094 10.925781 C 14.09375 10.898438 14.066406 10.875 14.035156 10.847656 Z M 13.074219 9.269531 C 12.980469 8.972656 12.929688 8.660156 12.914062 8.34375 L 14.605469 8.34375 C 14.617188 8.859375 14.671875 9.347656 14.765625 9.796875 C 14.324219 9.875 13.886719 9.988281 13.460938 10.128906 C 13.292969 9.859375 13.164062 9.570312 13.074219 9.269531 Z M 13.878906 5.699219 C 13.902344 5.671875 13.929688 5.640625 13.957031 5.613281 C 13.980469 5.585938 14.007812 5.5625 14.035156 5.535156 C 14.066406 5.507812 14.09375 5.480469 14.121094 5.457031 C 14.144531 5.429688 14.171875 5.410156 14.199219 5.386719 C 14.453125 5.164062 14.734375 4.984375 15.039062 4.839844 C 15.0625 4.832031 15.085938 4.820312 15.109375 4.808594 C 15.152344 4.789062 15.195312 4.773438 15.238281 4.753906 C 15.265625 4.742188 15.292969 4.734375 15.324219 4.722656 C 15.367188 4.707031 15.410156 4.691406 15.453125 4.675781 C 15.480469 4.667969 15.507812 4.660156 15.539062 4.648438 C 15.566406 4.640625 15.597656 4.632812 15.625 4.625 C 15.640625 4.621094 15.652344 4.617188 15.667969 4.613281 C 15.679688 4.609375 15.695312 4.605469 15.707031 4.605469 C 15.332031 4.96875 15.03125 5.558594 14.835938 6.289062 C 14.429688 6.214844 14.027344 6.117188 13.636719 5.992188 C 13.644531 5.980469 13.648438 5.972656 13.65625 5.964844 C 13.679688 5.933594 13.703125 5.902344 13.726562 5.875 C 13.753906 5.839844 13.785156 5.804688 13.8125 5.769531 C 13.835938 5.746094 13.855469 5.722656 13.878906 5.699219 Z M 17.554688 4.613281 C 17.566406 4.617188 17.582031 4.621094 17.597656 4.625 C 17.625 4.632812 17.652344 4.640625 17.683594 4.652344 C 17.710938 4.660156 17.738281 4.667969 17.769531 4.679688 C 17.816406 4.695312 17.867188 4.710938 17.914062 4.730469 C 17.9375 4.738281 17.960938 4.746094 17.984375 4.753906 C 18.027344 4.773438 18.070312 4.789062 18.113281 4.808594 C 18.136719 4.820312 18.160156 4.832031 18.183594 4.839844 C 18.472656 4.976562 18.746094 5.152344 18.992188 5.359375 C 19.011719 5.375 19.03125 5.394531 19.050781 5.410156 C 19.101562 5.453125 19.152344 5.5 19.199219 5.546875 C 19.222656 5.570312 19.242188 5.59375 19.265625 5.613281 C 19.289062 5.640625 19.316406 5.664062 19.339844 5.691406 C 19.390625 5.75 19.445312 5.808594 19.492188 5.875 C 19.515625 5.902344 19.542969 5.933594 19.5625 5.964844 C 19.566406 5.96875 19.570312 5.972656 19.574219 5.976562 C 19.578125 5.980469 19.582031 5.988281 19.582031 5.992188 C 19.191406 6.117188 18.789062 6.214844 18.382812 6.289062 C 18.265625 5.84375 18.105469 5.445312 17.914062 5.125 C 17.792969 4.917969 17.660156 4.746094 17.515625 4.605469 C 17.527344 4.605469 17.539062 4.609375 17.554688 4.613281 Z M 14.910156 8.039062 C 14.917969 7.542969 14.976562 7.066406 15.070312 6.636719 C 15.578125 6.714844 16.09375 6.753906 16.609375 6.753906 C 16.769531 6.753906 16.925781 6.75 17.085938 6.742188 C 17.359375 6.730469 17.636719 6.707031 17.914062 6.671875 C 17.992188 6.660156 18.070312 6.648438 18.148438 6.636719 C 18.242188 7.066406 18.300781 7.542969 18.3125 8.039062 Z M 18.3125 8.34375 C 18.304688 8.835938 18.246094 9.3125 18.148438 9.742188 C 18.070312 9.730469 17.992188 9.722656 17.910156 9.710938 C 17.636719 9.675781 17.363281 9.652344 17.085938 9.636719 C 16.410156 9.605469 15.734375 9.640625 15.070312 9.742188 C 14.976562 9.3125 14.917969 8.835938 14.910156 8.34375 Z M 17.914062 5.839844 C 17.972656 5.996094 18.03125 6.164062 18.078125 6.339844 C 18.023438 6.351562 17.96875 6.359375 17.914062 6.363281 C 17.640625 6.402344 17.363281 6.425781 17.085938 6.4375 C 16.433594 6.46875 15.78125 6.4375 15.144531 6.339844 C 15.445312 5.246094 15.996094 4.492188 16.609375 4.492188 C 16.773438 4.492188 16.933594 4.546875 17.085938 4.644531 C 17.410156 4.855469 17.699219 5.28125 17.914062 5.839844 Z M 14.765625 6.585938 C 14.671875 7.03125 14.613281 7.519531 14.605469 8.039062 L 12.914062 8.039062 C 12.941406 7.402344 13.128906 6.792969 13.460938 6.253906 C 13.886719 6.394531 14.324219 6.503906 14.765625 6.585938 Z M 18.453125 9.796875 C 18.550781 9.347656 18.605469 8.859375 18.613281 8.34375 L 20.304688 8.34375 C 20.28125 8.976562 20.09375 9.589844 19.757812 10.128906 C 19.335938 9.988281 18.894531 9.875 18.453125 9.796875 Z M 18.613281 8.039062 C 18.605469 7.519531 18.550781 7.03125 18.453125 6.585938 C 18.894531 6.503906 19.335938 6.394531 19.761719 6.253906 C 19.925781 6.523438 20.054688 6.808594 20.148438 7.109375 C 20.238281 7.410156 20.292969 7.722656 20.304688 8.039062 Z M 18.613281 8.039062 " fill-opacity="1" fill-rule="nonzero"/></g><path fill="#ffffff" d="M 14.863281 19.738281 C 14.792969 19.738281 14.722656 19.710938 14.671875 19.660156 L 13.179688 18.167969 C 13.074219 18.058594 13.074219 17.886719 13.179688 17.78125 L 14.648438 16.308594 C 14.757812 16.203125 14.929688 16.203125 15.035156 16.308594 C 15.144531 16.417969 15.144531 16.589844 15.035156 16.695312 L 13.761719 17.972656 L 15.058594 19.269531 C 15.164062 19.378906 15.164062 19.550781 15.058594 19.660156 C 15.003906 19.710938 14.933594 19.738281 14.863281 19.738281 Z M 14.863281 19.738281 " fill-opacity="1" fill-rule="nonzero"/><path fill="#ffffff" d="M 18.355469 19.738281 C 18.285156 19.738281 18.214844 19.710938 18.164062 19.660156 C 18.054688 19.550781 18.054688 19.378906 18.164062 19.269531 L 19.460938 17.972656 L 18.183594 16.695312 C 18.078125 16.589844 18.078125 16.417969 18.183594 16.308594 C 18.289062 16.203125 18.464844 16.203125 18.570312 16.308594 L 20.042969 17.78125 C 20.09375 17.832031 20.121094 17.898438 20.121094 17.972656 C 20.121094 18.046875 20.09375 18.117188 20.042969 18.167969 L 18.550781 19.660156 C 18.496094 19.710938 18.425781 19.738281 18.355469 19.738281 Z M 18.355469 19.738281 " fill-opacity="1" fill-rule="nonzero"/><path fill="#ffffff" d="M 16.054688 19.832031 C 16.023438 19.832031 15.992188 19.828125 15.960938 19.816406 C 15.816406 19.761719 15.746094 19.605469 15.796875 19.464844 L 16.910156 16.410156 C 16.960938 16.265625 17.117188 16.195312 17.261719 16.246094 C 17.402344 16.296875 17.476562 16.453125 17.421875 16.597656 L 16.3125 19.652344 C 16.269531 19.761719 16.167969 19.832031 16.054688 19.832031 Z M 16.054688 19.832031 " fill-opacity="1" fill-rule="nonzero"/><path fill="#ffffff" d="M 25.605469 17.4375 L 22.15625 17.4375 C 21.980469 17.4375 21.835938 17.582031 21.835938 17.761719 C 21.835938 17.9375 21.980469 18.082031 22.15625 18.082031 L 25.605469 18.082031 C 25.78125 18.082031 25.925781 17.9375 25.925781 17.761719 C 25.925781 17.582031 25.78125 17.4375 25.605469 17.4375 Z M 25.605469 17.4375 " fill-opacity="1" fill-rule="nonzero"/><path fill="#ffffff" d="M 11.0625 17.4375 L 7.617188 17.4375 C 7.4375 17.4375 7.292969 17.582031 7.292969 17.761719 C 7.292969 17.9375 7.4375 18.082031 7.617188 18.082031 L 11.0625 18.082031 C 11.242188 18.082031 11.386719 17.9375 11.386719 17.761719 C 11.386719 17.582031 11.242188 17.4375 11.0625 17.4375 Z M 11.0625 17.4375 " fill-opacity="1" fill-rule="nonzero"/><g fill="#ffffff" fill-opacity="1"><g transform="translate(31.734225, 11.734978)"><g><path d="M 5.660156 -1.035156 C 5.628906 -1.101562 5.667969 -1.074219 5.640625 -1.101562 C 5.582031 -1.179688 5.523438 -1.230469 5.457031 -1.265625 L 5.3125 -1.363281 C 5.175781 -1.414062 5.070312 -1.453125 4.914062 -1.488281 L 4.625 -1.546875 L 4.671875 -1.691406 C 4.691406 -1.710938 4.703125 -1.742188 4.710938 -1.769531 C 4.742188 -1.847656 4.75 -1.914062 4.789062 -1.992188 C 4.796875 -2.03125 4.816406 -2.082031 4.816406 -2.136719 C 4.867188 -2.214844 4.894531 -2.300781 4.925781 -2.398438 L 4.964844 -2.488281 L 5.097656 -2.980469 C 5.109375 -3.039062 5.128906 -3.097656 5.15625 -3.144531 C 5.167969 -3.210938 5.195312 -3.28125 5.222656 -3.367188 C 5.253906 -3.472656 5.28125 -3.550781 5.320312 -3.6875 C 5.320312 -3.707031 5.332031 -3.746094 5.339844 -3.753906 C 5.398438 -3.800781 5.339844 -3.851562 5.332031 -3.910156 C 5.3125 -3.976562 5.339844 -4.023438 5.359375 -4.074219 L 5.398438 -4.171875 C 5.398438 -4.1875 5.398438 -4.207031 5.390625 -4.226562 C 5.410156 -4.296875 5.371094 -4.34375 5.332031 -4.363281 C 5.253906 -4.390625 5.195312 -4.402344 5.148438 -4.460938 C 5.128906 -4.46875 5.117188 -4.480469 5.109375 -4.480469 C 5.039062 -4.488281 5.003906 -4.46875 4.945312 -4.429688 C 4.945312 -4.421875 4.925781 -4.410156 4.90625 -4.421875 C 4.828125 -4.429688 4.761719 -4.375 4.703125 -4.296875 L 4.519531 -4.09375 L 4.375 -4.003906 C 4.023438 -3.707031 3.839844 -3.425781 3.492188 -3.066406 C 3.171875 -2.726562 2.875 -2.410156 2.535156 -2.042969 C 2.515625 -1.984375 2.457031 -1.972656 2.449219 -1.925781 C 2.417969 -1.867188 2.371094 -1.828125 2.332031 -1.789062 C 2.285156 -1.761719 2.265625 -1.664062 2.1875 -1.671875 L 2.109375 -1.636719 C 1.972656 -1.636719 1.886719 -1.636719 1.75 -1.625 C 1.519531 -1.605469 1.285156 -1.625 1.035156 -1.597656 C 1.007812 -1.597656 0.949219 -1.566406 0.910156 -1.539062 C 0.832031 -1.453125 0.9375 -1.230469 0.988281 -1.210938 C 1.042969 -1.199219 1.09375 -1.21875 1.140625 -1.199219 C 1.257812 -1.210938 1.355469 -1.230469 1.480469 -1.230469 L 1.703125 -1.230469 C 1.730469 -1.238281 1.886719 -1.25 1.925781 -1.25 L 1.800781 -1.074219 L 1.75 -0.988281 C 1.710938 -0.929688 1.671875 -0.898438 1.644531 -0.851562 L 1.394531 -0.453125 C 1.355469 -0.398438 1.316406 -0.339844 1.296875 -0.289062 L 1.179688 -0.117188 L 1.101562 -0.0078125 C 1.101562 0.0078125 1.074219 0.0390625 1.054688 0.0976562 L 1.007812 0.136719 L 0.976562 0.210938 C 0.949219 0.320312 0.832031 0.492188 0.832031 0.492188 C 0.8125 0.550781 0.773438 0.621094 0.734375 0.6875 C 0.65625 0.917969 0.550781 1.140625 0.503906 1.402344 C 0.472656 1.625 0.464844 1.808594 0.523438 2.023438 C 0.53125 2.03125 0.550781 2.042969 0.570312 2.050781 C 0.570312 2.03125 0.582031 2.011719 0.582031 1.984375 C 0.589844 1.964844 0.582031 1.925781 0.589844 1.886719 L 0.621094 1.742188 L 0.65625 1.527344 C 0.65625 1.46875 0.726562 1.277344 0.734375 1.199219 L 0.851562 0.96875 L 0.878906 0.898438 L 0.890625 0.832031 C 0.910156 0.785156 0.929688 0.753906 0.96875 0.695312 C 0.988281 0.667969 1.007812 0.609375 1.027344 0.589844 C 1.035156 0.542969 1.042969 0.492188 1.074219 0.433594 L 1.074219 0.417969 C 1.140625 0.386719 1.199219 0.378906 1.230469 0.28125 L 1.210938 0.222656 C 1.25 0.242188 1.265625 0.230469 1.285156 0.195312 C 1.304688 0.164062 1.316406 0.136719 1.355469 0.105469 C 1.363281 0.0976562 1.363281 0.0664062 1.363281 0.0390625 L 1.394531 -0.0195312 C 1.394531 -0.0195312 1.414062 -0.0195312 1.414062 -0.0273438 L 1.558594 -0.175781 C 1.566406 -0.210938 1.597656 -0.261719 1.644531 -0.300781 C 1.664062 -0.328125 1.691406 -0.339844 1.691406 -0.386719 C 1.703125 -0.445312 1.722656 -0.484375 1.769531 -0.492188 C 1.78125 -0.492188 1.789062 -0.511719 1.800781 -0.523438 C 1.789062 -0.5625 1.820312 -0.5625 1.828125 -0.570312 C 1.886719 -0.621094 1.925781 -0.628906 1.925781 -0.714844 L 1.992188 -0.765625 C 2.070312 -0.859375 2.097656 -0.957031 2.1875 -1.074219 C 2.195312 -1.082031 2.195312 -1.09375 2.207031 -1.113281 C 2.320312 -1.230469 2.351562 -1.25 2.359375 -1.277344 C 2.410156 -1.265625 2.449219 -1.285156 2.488281 -1.285156 C 2.542969 -1.285156 2.59375 -1.296875 2.632812 -1.285156 L 2.875 -1.277344 L 3.492188 -1.277344 L 3.976562 -1.25 L 4.0625 -1.25 L 4.121094 -1.230469 C 4.09375 -1.082031 3.984375 -0.753906 3.957031 -0.609375 C 3.929688 -0.433594 3.898438 -0.308594 3.871094 -0.125 L 3.839844 0.078125 C 3.832031 0.230469 3.8125 0.503906 3.871094 0.65625 C 3.964844 1.0625 4.152344 1.265625 4.578125 1.21875 C 4.730469 1.210938 4.847656 1.113281 4.933594 0.976562 L 4.90625 0.949219 C 4.855469 1.027344 4.605469 1.082031 4.441406 0.917969 C 4.375 0.859375 4.304688 0.753906 4.296875 0.65625 C 4.226562 0.472656 4.238281 0.289062 4.246094 0.125 L 4.257812 -0.0390625 C 4.265625 -0.105469 4.285156 -0.175781 4.304688 -0.25 L 4.324219 -0.425781 C 4.324219 -0.433594 4.335938 -0.511719 4.355469 -0.53125 L 4.375 -0.621094 L 4.429688 -0.765625 C 4.429688 -0.832031 4.480469 -0.957031 4.46875 -1.027344 L 4.539062 -1.238281 L 4.867188 -1.210938 L 4.925781 -1.199219 L 5.15625 -1.132812 L 5.339844 -1.101562 L 5.417969 -1.0625 L 5.59375 -1.015625 C 5.628906 -0.996094 5.667969 -1.015625 5.660156 -1.035156 Z M 4.21875 -1.566406 L 3.957031 -1.597656 C 3.851562 -1.605469 3.78125 -1.605469 3.707031 -1.617188 C 3.617188 -1.605469 3.53125 -1.617188 3.464844 -1.636719 C 3.386719 -1.625 3.320312 -1.636719 3.242188 -1.625 C 3.144531 -1.636719 3.046875 -1.625 2.949219 -1.65625 C 2.882812 -1.644531 2.796875 -1.65625 2.699219 -1.644531 C 2.824219 -1.789062 2.941406 -1.925781 3.066406 -2.082031 L 3.152344 -2.207031 C 3.191406 -2.253906 3.230469 -2.300781 3.28125 -2.332031 C 3.300781 -2.390625 3.328125 -2.398438 3.367188 -2.429688 C 3.414062 -2.496094 3.503906 -2.542969 3.550781 -2.613281 C 3.589844 -2.691406 3.636719 -2.726562 3.707031 -2.777344 C 3.734375 -2.796875 3.78125 -2.84375 3.800781 -2.875 C 3.839844 -2.921875 3.890625 -2.960938 3.917969 -2.988281 C 3.976562 -3.078125 4.023438 -3.144531 4.09375 -3.191406 C 4.171875 -3.269531 4.238281 -3.320312 4.335938 -3.394531 C 4.382812 -3.453125 4.441406 -3.523438 4.507812 -3.578125 C 4.566406 -3.628906 4.625 -3.6875 4.652344 -3.753906 C 4.710938 -3.800781 4.886719 -3.957031 4.925781 -4.015625 L 4.972656 -4.015625 C 4.945312 -3.910156 4.867188 -3.65625 4.855469 -3.558594 C 4.796875 -3.453125 4.761719 -3.308594 4.722656 -3.191406 L 4.578125 -2.699219 L 4.5 -2.449219 L 4.460938 -2.3125 C 4.441406 -2.273438 4.429688 -2.234375 4.410156 -2.195312 C 4.382812 -2.097656 4.355469 -1.984375 4.324219 -1.894531 Z M 4.21875 -1.566406 "/></g></g></g><g fill="#ffffff" fill-opacity="1"><g transform="translate(37.586759, 11.734978)"><g><path d="M 0.210938 0.175781 C 0.289062 0.203125 0.328125 0.183594 0.347656 0.0664062 C 0.367188 0 0.367188 -0.0664062 0.386719 -0.136719 C 0.417969 -0.222656 0.425781 -0.308594 0.464844 -0.40625 C 0.523438 -0.523438 0.601562 -0.628906 0.65625 -0.765625 C 0.726562 -0.878906 0.804688 -0.976562 0.871094 -1.074219 L 1.054688 -1.316406 C 1.101562 -1.363281 1.160156 -1.414062 1.21875 -1.460938 C 1.238281 -1.488281 1.257812 -1.527344 1.285156 -1.539062 C 1.34375 -1.578125 1.402344 -1.597656 1.441406 -1.644531 C 1.5 -1.691406 1.558594 -1.683594 1.617188 -1.683594 C 1.742188 -1.625 1.800781 -1.65625 1.800781 -1.65625 L 1.808594 -1.703125 C 1.789062 -1.75 1.769531 -1.789062 1.730469 -1.820312 C 1.710938 -1.820312 1.703125 -1.839844 1.691406 -1.847656 C 1.65625 -1.886719 1.605469 -1.925781 1.558594 -1.964844 C 1.441406 -2.03125 1.304688 -2.03125 1.179688 -1.933594 C 1.074219 -1.867188 0.96875 -1.789062 0.878906 -1.664062 C 0.8125 -1.597656 0.753906 -1.546875 0.707031 -1.460938 C 0.695312 -1.433594 0.65625 -1.402344 0.628906 -1.363281 C 0.628906 -1.414062 0.648438 -1.441406 0.648438 -1.46875 C 0.65625 -1.558594 0.648438 -1.644531 0.621094 -1.722656 C 0.582031 -1.867188 0.503906 -1.914062 0.40625 -1.875 C 0.378906 -1.875 0.339844 -1.859375 0.320312 -1.828125 C 0.308594 -1.820312 0.308594 -1.78125 0.300781 -1.761719 C 0.28125 -1.625 0.25 -1.5 0.230469 -1.363281 C 0.210938 -1.238281 0.164062 -1.101562 0.144531 -0.96875 C 0.144531 -0.859375 0.105469 -0.753906 0.0859375 -0.648438 L 0.0078125 -0.25 C -0.0195312 -0.125 0.0273438 -0.0273438 0.0664062 0.0664062 C 0.144531 0.105469 0.15625 0.144531 0.210938 0.175781 Z M 0.210938 0.175781 "/></g></g></g><g fill="#ffffff" fill-opacity="1"><g transform="translate(39.482787, 11.734978)"><g><path d="M 3.667969 -1.285156 L 3.628906 -1.375 L 3.597656 -1.394531 C 3.503906 -1.335938 3.425781 -1.285156 3.355469 -1.230469 C 3.132812 -1.082031 3.152344 -1.101562 2.921875 -0.957031 C 2.785156 -0.859375 2.640625 -0.773438 2.515625 -0.695312 C 2.378906 -0.601562 2.226562 -0.484375 2.070312 -0.417969 C 2.03125 -0.398438 1.992188 -0.398438 1.964844 -0.386719 C 1.933594 -0.378906 1.914062 -0.378906 1.894531 -0.386719 C 1.847656 -0.417969 1.820312 -0.453125 1.808594 -0.492188 C 1.75 -0.628906 1.75 -0.773438 1.78125 -0.910156 C 1.789062 -0.929688 1.789062 -0.949219 1.800781 -0.957031 C 1.828125 -1.035156 1.820312 -1.140625 1.820312 -1.140625 C 1.800781 -1.210938 1.761719 -1.257812 1.703125 -1.277344 C 1.585938 -1.285156 1.519531 -1.210938 1.441406 -1.199219 C 1.488281 -1.296875 1.566406 -1.382812 1.539062 -1.519531 C 1.5 -1.742188 1.265625 -1.78125 1.0625 -1.820312 C 0.878906 -1.800781 0.714844 -1.683594 0.601562 -1.558594 C 0.484375 -1.414062 0.359375 -1.296875 0.25 -1.132812 C 0.230469 -1.113281 0.210938 -1.0625 0.175781 -1.015625 L 0.105469 -0.898438 C 0.0859375 -0.832031 0.0585938 -0.785156 0.046875 -0.726562 C 0.046875 -0.714844 0.046875 -0.714844 0.0390625 -0.707031 C 0.0195312 -0.648438 0 -0.601562 -0.0273438 -0.53125 C -0.0664062 -0.386719 -0.0390625 -0.261719 0.046875 -0.144531 C 0.105469 -0.117188 0.183594 -0.0664062 0.203125 -0.046875 C 0.230469 -0.0390625 0.261719 -0.0390625 0.28125 -0.0390625 C 0.425781 0.0195312 0.589844 0.0195312 0.746094 -0.0585938 C 0.898438 -0.125 1.054688 -0.25 1.171875 -0.339844 C 1.191406 -0.347656 1.199219 -0.378906 1.21875 -0.398438 C 1.285156 -0.398438 1.285156 -0.492188 1.355469 -0.53125 C 1.363281 -0.511719 1.363281 -0.492188 1.382812 -0.484375 C 1.414062 -0.433594 1.402344 -0.417969 1.460938 -0.359375 C 1.5 -0.269531 1.566406 -0.230469 1.625 -0.15625 C 1.65625 -0.144531 1.671875 -0.105469 1.703125 -0.0976562 C 1.722656 -0.078125 1.78125 -0.078125 1.800781 -0.0664062 C 1.839844 -0.0585938 1.925781 -0.078125 1.964844 -0.078125 C 1.992188 -0.078125 2.042969 -0.0976562 2.050781 -0.0976562 C 2.082031 -0.0976562 2.128906 -0.117188 2.148438 -0.125 C 2.195312 -0.15625 2.226562 -0.144531 2.285156 -0.175781 C 2.378906 -0.242188 2.46875 -0.261719 2.542969 -0.347656 L 2.777344 -0.523438 L 2.921875 -0.648438 C 2.949219 -0.65625 3.019531 -0.734375 3.027344 -0.746094 C 3.078125 -0.765625 3.117188 -0.8125 3.144531 -0.839844 C 3.171875 -0.859375 3.242188 -0.890625 3.289062 -0.929688 C 3.414062 -1.015625 3.570312 -1.140625 3.667969 -1.285156 Z M 1.304688 -1.015625 C 1.160156 -0.859375 1.09375 -0.746094 0.949219 -0.589844 C 0.851562 -0.484375 0.765625 -0.417969 0.636719 -0.367188 C 0.542969 -0.328125 0.367188 -0.320312 0.261719 -0.320312 C 0.308594 -0.511719 0.398438 -0.675781 0.484375 -0.832031 C 0.589844 -1.015625 0.929688 -1.46875 1.21875 -1.519531 C 1.210938 -1.507812 1.132812 -1.082031 1.34375 -1.0625 L 1.355469 -1.0625 C 1.355469 -1.0625 1.316406 -1.015625 1.304688 -1.015625 Z M 1.304688 -1.015625 "/></g></g></g><g fill="#ffffff" fill-opacity="1"><g transform="translate(42.617035, 11.734978)"><g><path d="M 0.398438 0.785156 C 0.492188 0.726562 0.609375 0.707031 0.726562 0.636719 C 0.785156 0.582031 0.859375 0.511719 0.910156 0.425781 C 1.007812 0.367188 1.074219 0.269531 1.140625 0.195312 C 1.191406 0.136719 1.257812 0.078125 1.304688 0.0078125 C 1.363281 -0.0859375 1.433594 -0.164062 1.453125 -0.289062 C 1.453125 -0.289062 1.460938 -0.300781 1.480469 -0.300781 C 1.558594 -0.339844 1.578125 -0.417969 1.605469 -0.484375 C 1.636719 -0.53125 1.644531 -0.582031 1.761719 -0.859375 L 1.886719 -1.191406 C 1.914062 -1.285156 1.90625 -1.394531 1.859375 -1.460938 C 1.839844 -1.46875 1.839844 -1.488281 1.828125 -1.507812 C 1.800781 -1.527344 1.789062 -1.578125 1.769531 -1.578125 C 1.742188 -1.578125 1.710938 -1.527344 1.691406 -1.488281 C 1.644531 -1.382812 1.597656 -1.285156 1.566406 -1.210938 C 1.480469 -1.0625 1.394531 -0.929688 1.316406 -0.785156 C 1.25 -0.628906 1.152344 -0.484375 1.027344 -0.347656 C 0.976562 -0.28125 0.917969 -0.195312 0.859375 -0.144531 C 0.804688 -0.0585938 0.726562 0.0273438 0.636719 0.0976562 C 0.5625 0.15625 0.484375 0.242188 0.386719 0.242188 C 0.417969 0.105469 0.425781 -0.0195312 0.445312 -0.15625 C 0.511719 -0.359375 0.550781 -0.542969 0.601562 -0.746094 C 0.628906 -0.9375 0.6875 -1.132812 0.667969 -1.324219 C 0.648438 -1.34375 0.628906 -1.363281 0.628906 -1.382812 C 0.609375 -1.402344 0.621094 -1.433594 0.609375 -1.453125 C 0.542969 -1.46875 0.453125 -1.539062 0.40625 -1.527344 L 0.320312 -1.171875 C 0.289062 -1.082031 0.28125 -1.015625 0.269531 -0.9375 C 0.242188 -0.851562 0.210938 -0.734375 0.210938 -0.636719 C 0.183594 -0.5625 0.136719 -0.464844 0.136719 -0.359375 C 0.125 -0.28125 0.0859375 -0.222656 0.0664062 -0.125 C 0.078125 0.0195312 0.0585938 0.164062 0.0585938 0.320312 C 0.0585938 0.339844 0.0664062 0.386719 0.078125 0.445312 C 0.117188 0.511719 0.105469 0.601562 0.175781 0.601562 C 0.183594 0.601562 0.242188 0.707031 0.242188 0.714844 Z M 0.398438 0.785156 "/></g></g></g><g fill="#ffffff" fill-opacity="1"><g transform="translate(44.822618, 11.734978)"><g><path d="M 0.804688 -2.117188 C 0.859375 -2.082031 0.917969 -2.082031 0.96875 -2.097656 C 1.054688 -2.15625 1.140625 -2.214844 1.179688 -2.320312 C 1.21875 -2.429688 1.179688 -2.535156 1.152344 -2.632812 C 1.132812 -2.699219 1.074219 -2.726562 0.96875 -2.71875 C 0.96875 -2.71875 0.929688 -2.71875 0.917969 -2.710938 C 0.792969 -2.640625 0.6875 -2.574219 0.636719 -2.429688 C 0.621094 -2.332031 0.636719 -2.253906 0.695312 -2.1875 C 0.726562 -2.15625 0.773438 -2.136719 0.804688 -2.117188 Z M 2.109375 -1.082031 C 2.15625 -1.171875 2.148438 -1.230469 2.128906 -1.25 C 2.003906 -1.121094 1.875 -1.015625 1.761719 -0.910156 C 1.617188 -0.773438 1.480469 -0.621094 1.324219 -0.484375 C 1.179688 -0.339844 1.007812 -0.203125 0.851562 -0.0664062 C 0.773438 0 0.6875 0.0390625 0.582031 0.0664062 C 0.589844 -0.0273438 0.621094 -0.117188 0.621094 -0.203125 C 0.628906 -0.300781 0.6875 -0.386719 0.65625 -0.472656 C 0.65625 -0.492188 0.667969 -0.503906 0.675781 -0.523438 C 0.6875 -0.5625 0.707031 -0.601562 0.726562 -0.636719 C 0.765625 -0.765625 0.804688 -0.878906 0.832031 -0.996094 C 0.851562 -1.042969 0.871094 -1.09375 0.871094 -1.152344 C 0.878906 -1.199219 0.878906 -1.257812 0.859375 -1.296875 C 0.839844 -1.335938 0.792969 -1.375 0.753906 -1.402344 C 0.726562 -1.453125 0.65625 -1.480469 0.628906 -1.527344 C 0.601562 -1.578125 0.570312 -1.558594 0.542969 -1.546875 C 0.503906 -1.546875 0.492188 -1.519531 0.503906 -1.480469 L 0.503906 -1.402344 C 0.453125 -1.21875 0.40625 -1.054688 0.367188 -0.878906 C 0.328125 -0.753906 0.289062 -0.628906 0.269531 -0.503906 C 0.222656 -0.328125 0.183594 -0.144531 0.203125 0.0195312 C 0.210938 0.0585938 0.242188 0.078125 0.25 0.117188 C 0.269531 0.136719 0.289062 0.164062 0.300781 0.195312 C 0.308594 0.210938 0.308594 0.242188 0.328125 0.25 C 0.398438 0.300781 0.433594 0.386719 0.53125 0.40625 C 0.601562 0.425781 0.648438 0.453125 0.726562 0.433594 C 0.792969 0.398438 0.859375 0.367188 0.917969 0.339844 C 0.976562 0.320312 1.035156 0.308594 1.074219 0.269531 C 1.132812 0.230469 1.179688 0.195312 1.21875 0.144531 C 1.277344 0.0664062 1.34375 -0.0078125 1.421875 -0.0585938 L 1.46875 -0.105469 C 1.488281 -0.125 1.5 -0.15625 1.519531 -0.175781 L 1.625 -0.328125 C 1.761719 -0.523438 1.78125 -0.609375 1.820312 -0.65625 C 1.875 -0.726562 2.089844 -1.0625 2.097656 -1.074219 Z M 2.109375 -1.082031 "/></g></g></g><g fill="#ffffff" fill-opacity="1"><g transform="translate(46.776689, 11.734978)"><g><path d="M 0.289062 0.445312 C 0.367188 0.464844 0.40625 0.453125 0.445312 0.378906 C 0.453125 0.367188 0.453125 0.359375 0.472656 0.347656 L 0.503906 0.28125 C 0.550781 0.28125 0.589844 0.25 0.628906 0.203125 C 0.675781 0.0976562 0.859375 -0.261719 0.871094 -0.261719 L 0.917969 -0.328125 C 0.898438 -0.328125 0.957031 -0.378906 0.96875 -0.40625 C 0.996094 -0.453125 1.0625 -0.464844 1.054688 -0.542969 C 1.121094 -0.570312 1.171875 -0.621094 1.191406 -0.695312 C 1.257812 -0.707031 1.296875 -0.734375 1.324219 -0.839844 C 1.335938 -0.8125 1.355469 -0.804688 1.375 -0.785156 C 1.375 -0.726562 1.363281 -0.65625 1.363281 -0.609375 C 1.34375 -0.40625 1.382812 -0.222656 1.433594 -0.0585938 C 1.46875 0.0664062 1.546875 0.15625 1.636719 0.222656 C 1.683594 0.28125 1.710938 0.28125 1.78125 0.308594 L 1.789062 0.308594 C 1.933594 0.28125 2.097656 0.28125 2.234375 0.183594 C 2.320312 0.125 2.410156 0.0585938 2.46875 -0.0078125 C 2.535156 -0.078125 2.613281 -0.136719 2.652344 -0.210938 C 2.652344 -0.222656 2.679688 -0.222656 2.691406 -0.230469 C 2.679688 -0.242188 2.679688 -0.261719 2.679688 -0.261719 C 2.726562 -0.289062 2.726562 -0.320312 2.738281 -0.339844 L 2.902344 -0.53125 C 2.941406 -0.5625 2.980469 -0.609375 3 -0.648438 C 3.019531 -0.6875 3.019531 -0.726562 3.039062 -0.773438 L 3.125 -0.910156 C 3.171875 -0.96875 3.132812 -1.007812 3.078125 -1.007812 L 2.175781 -0.144531 C 2.128906 -0.105469 2.070312 -0.078125 2.011719 -0.0585938 C 1.847656 0.0273438 1.820312 0.0390625 1.808594 0.046875 L 1.78125 0.046875 C 1.769531 0.0390625 1.742188 0.0078125 1.742188 -0.0078125 L 1.710938 -0.105469 C 1.710938 -0.175781 1.710938 -0.25 1.703125 -0.320312 C 1.710938 -0.347656 1.703125 -0.378906 1.703125 -0.398438 C 1.710938 -0.472656 1.722656 -0.550781 1.722656 -0.628906 C 1.710938 -0.714844 1.691406 -0.804688 1.664062 -0.890625 C 1.664062 -0.917969 1.671875 -0.949219 1.664062 -0.949219 C 1.625 -0.96875 1.636719 -1.015625 1.625 -1.0625 C 1.46875 -1.140625 1.453125 -1.160156 1.421875 -1.160156 C 1.394531 -1.171875 1.375 -1.179688 1.296875 -1.179688 C 1.199219 -1.171875 1.191406 -1.171875 1.140625 -1.140625 C 1.0625 -1.082031 0.996094 -1.015625 0.9375 -0.949219 C 0.824219 -0.832031 0.714844 -0.695312 0.621094 -0.550781 C 0.621094 -0.542969 0.621094 -0.550781 0.609375 -0.542969 C 0.621094 -0.5625 0.621094 -0.570312 0.621094 -0.582031 C 0.636719 -0.648438 0.667969 -0.707031 0.6875 -0.773438 C 0.707031 -0.839844 0.707031 -0.890625 0.714844 -0.957031 C 0.726562 -1.035156 0.734375 -1.101562 0.753906 -1.179688 C 0.753906 -1.191406 0.753906 -1.191406 0.746094 -1.199219 C 0.675781 -1.296875 0.589844 -1.382812 0.464844 -1.394531 C 0.40625 -1.402344 0.386719 -1.382812 0.378906 -1.316406 C 0.367188 -1.257812 0.359375 -1.199219 0.386719 -1.171875 C 0.398438 -1.171875 0.398438 -1.152344 0.398438 -1.140625 C 0.378906 -1.027344 0.367188 -0.917969 0.339844 -0.804688 C 0.300781 -0.628906 0.242188 -0.453125 0.195312 -0.289062 C 0.15625 -0.117188 0.136719 0.0390625 0.105469 0.203125 C 0.0859375 0.28125 0.230469 0.425781 0.289062 0.445312 Z M 0.289062 0.445312 "/></g></g></g><g fill="#ffffff" fill-opacity="1"><g transform="translate(49.282148, 11.734978)"><g><path d="M 4.835938 -6.074219 L 4.828125 -6.25 L 4.796875 -6.308594 C 4.816406 -6.316406 4.828125 -6.347656 4.828125 -6.347656 C 4.796875 -6.425781 4.855469 -6.511719 4.835938 -6.589844 C 4.769531 -6.703125 4.75 -6.820312 4.644531 -6.878906 C 4.507812 -6.976562 4.34375 -7.023438 4.1875 -6.984375 C 3.976562 -6.945312 3.792969 -6.871094 3.65625 -6.714844 C 3.617188 -6.65625 3.570312 -6.597656 3.53125 -6.550781 C 3.492188 -6.5 3.414062 -6.453125 3.414062 -6.367188 C 3.414062 -6.355469 3.414062 -6.355469 3.40625 -6.347656 C 3.375 -6.296875 3.328125 -6.25 3.300781 -6.203125 C 3.289062 -6.203125 3.28125 -6.191406 3.28125 -6.183594 C 3.230469 -6.085938 3.191406 -6 3.132812 -5.929688 C 3.125 -5.921875 3.125 -5.921875 3.125 -5.902344 L 3.039062 -5.738281 C 3.027344 -5.699219 3 -5.648438 2.960938 -5.601562 C 2.921875 -5.535156 2.914062 -5.476562 2.882812 -5.417969 C 2.824219 -5.3125 2.785156 -5.222656 2.738281 -5.136719 L 2.652344 -4.875 C 2.613281 -4.816406 2.582031 -4.730469 2.535156 -4.585938 C 2.449219 -4.355469 2.359375 -4.132812 2.300781 -3.890625 C 2.246094 -3.726562 2.097656 -3.203125 2.089844 -3.171875 C 2.0625 -3.027344 2.042969 -2.902344 2.011719 -2.777344 C 1.964844 -2.601562 1.933594 -2.457031 1.894531 -2.292969 L 1.800781 -1.644531 C 1.800781 -1.605469 1.789062 -1.578125 1.78125 -1.558594 C 1.78125 -1.546875 1.761719 -1.507812 1.761719 -1.488281 C 1.691406 -1.324219 1.691406 -1.355469 1.691406 -1.34375 L 1.539062 -1.0625 L 1.277344 -0.695312 C 1.230469 -0.628906 1.152344 -0.582031 1.113281 -0.503906 C 1.035156 -0.433594 0.988281 -0.339844 0.898438 -0.269531 C 0.824219 -0.195312 0.773438 -0.164062 0.6875 -0.117188 C 0.621094 -0.078125 0.511719 -0.0195312 0.386719 -0.078125 C 0.398438 -0.195312 0.347656 -0.300781 0.417969 -0.425781 C 0.433594 -0.445312 0.433594 -0.484375 0.445312 -0.511719 C 0.445312 -0.5625 0.472656 -0.6875 0.503906 -0.785156 C 0.523438 -0.8125 0.523438 -0.832031 0.523438 -0.851562 C 0.53125 -0.859375 0.570312 -0.9375 0.589844 -0.976562 C 0.65625 -1.121094 0.765625 -1.277344 0.890625 -1.382812 C 0.929688 -1.433594 0.976562 -1.453125 1.027344 -1.488281 C 1.191406 -1.546875 1.277344 -1.527344 1.316406 -1.433594 C 1.335938 -1.296875 1.394531 -1.238281 1.519531 -1.25 L 1.539062 -1.25 C 1.847656 -1.519531 1.546875 -1.75 1.546875 -1.75 C 1.546875 -1.75 0.988281 -2.023438 0.40625 -1.375 L 0.347656 -1.285156 C 0.308594 -1.238281 0.269531 -1.160156 0.222656 -1.0625 C 0.203125 -1.0625 0.203125 -1.054688 0.203125 -1.054688 C 0.183594 -1.007812 0.136719 -0.859375 0.0976562 -0.765625 L 0.078125 -0.765625 L 0.078125 -0.753906 C 0.0585938 -0.636719 0.046875 -0.550781 0.0078125 -0.445312 C -0.0078125 -0.328125 0.0664062 -0.25 0.0859375 -0.164062 C 0.0976562 -0.125 0.0859375 -0.0859375 0.0976562 -0.0664062 C 0.136719 0 0.15625 0.078125 0.195312 0.105469 C 0.261719 0.15625 0.339844 0.222656 0.40625 0.230469 C 0.550781 0.269531 0.707031 0.28125 0.859375 0.183594 C 0.96875 0.125 1.054688 0.078125 1.140625 0.0195312 C 1.210938 -0.0585938 1.285156 -0.136719 1.355469 -0.203125 C 1.414062 -0.28125 1.433594 -0.269531 1.527344 -0.40625 C 1.546875 -0.433594 1.566406 -0.484375 1.585938 -0.503906 L 1.691406 -0.65625 C 1.710938 -0.589844 1.761719 -0.472656 1.789062 -0.339844 L 1.800781 -0.300781 L 1.828125 -0.269531 C 1.867188 -0.164062 1.914062 -0.105469 2.03125 -0.0195312 C 2.136719 0.0390625 2.285156 0.0859375 2.417969 0.0859375 C 2.488281 0.0859375 2.554688 0.105469 2.613281 0.105469 C 2.671875 0.105469 2.71875 0.105469 2.765625 0.0859375 C 2.855469 0.078125 2.929688 0.046875 3 0.0195312 C 3.085938 -0.0273438 3.320312 -0.0859375 3.414062 -0.144531 C 3.53125 -0.25 3.542969 -0.261719 3.675781 -0.367188 C 3.675781 -0.386719 3.648438 -0.398438 3.648438 -0.398438 C 3.726562 -0.464844 3.761719 -0.511719 3.832031 -0.582031 C 3.8125 -0.582031 3.9375 -0.746094 3.929688 -0.753906 C 3.910156 -0.753906 3.910156 -0.765625 3.890625 -0.753906 C 3.839844 -0.714844 3.792969 -0.695312 3.746094 -0.667969 C 3.503906 -0.5625 3.28125 -0.417969 3.039062 -0.328125 C 2.882812 -0.28125 2.738281 -0.230469 2.601562 -0.230469 C 2.476562 -0.222656 2.429688 -0.222656 2.300781 -0.261719 C 2.265625 -0.28125 2.226562 -0.300781 2.1875 -0.359375 C 2.167969 -0.367188 2.148438 -0.425781 2.148438 -0.433594 L 2.117188 -0.542969 L 2.070312 -0.878906 C 2.070312 -0.917969 2.042969 -0.96875 2.0625 -0.988281 C 2.089844 -1.035156 2.097656 -1.0625 2.082031 -1.082031 C 2.097656 -1.09375 2.097656 -1.121094 2.097656 -1.132812 L 2.097656 -1.171875 C 2.097656 -1.191406 2.097656 -1.210938 2.117188 -1.238281 L 2.542969 -1.78125 C 2.554688 -1.800781 2.5625 -1.828125 2.582031 -1.839844 C 2.601562 -1.867188 2.601562 -1.886719 2.621094 -1.90625 C 2.640625 -1.90625 2.640625 -1.90625 2.691406 -1.953125 C 2.726562 -2.011719 2.765625 -2.0625 2.816406 -2.089844 C 2.835938 -2.117188 2.894531 -2.148438 2.960938 -2.265625 L 3.039062 -2.398438 C 3.066406 -2.390625 3.085938 -2.457031 3.105469 -2.449219 C 3.117188 -2.476562 3.183594 -2.601562 3.230469 -2.699219 C 3.289062 -2.777344 3.375 -2.929688 3.386719 -2.929688 C 3.445312 -2.988281 3.839844 -3.53125 3.792969 -3.550781 L 3.976562 -3.773438 C 4.023438 -3.832031 4.042969 -3.859375 4.0625 -3.996094 L 4.082031 -3.996094 C 4.09375 -4.035156 4.121094 -4.074219 4.140625 -4.101562 L 4.246094 -4.21875 C 4.285156 -4.285156 4.324219 -4.382812 4.324219 -4.421875 C 4.363281 -4.460938 4.375 -4.507812 4.390625 -4.59375 C 4.421875 -4.605469 4.429688 -4.613281 4.441406 -4.613281 C 4.441406 -4.664062 4.441406 -4.722656 4.449219 -4.769531 L 4.460938 -4.816406 L 4.460938 -4.828125 C 4.480469 -4.835938 4.5 -4.835938 4.527344 -4.835938 L 4.578125 -4.972656 C 4.683594 -5.019531 4.664062 -5.1875 4.632812 -5.242188 C 4.632812 -5.242188 4.664062 -5.253906 4.664062 -5.273438 C 4.691406 -5.410156 4.730469 -5.515625 4.75 -5.628906 L 4.796875 -5.816406 C 4.828125 -5.882812 4.855469 -5.980469 4.835938 -6.074219 Z M 4.460938 -6.289062 C 4.421875 -6.09375 4.382812 -5.929688 4.355469 -5.738281 C 4.335938 -5.613281 4.296875 -5.484375 4.246094 -5.351562 L 4.160156 -5.15625 L 4.003906 -4.742188 C 3.957031 -4.625 3.898438 -4.527344 3.832031 -4.421875 C 3.734375 -4.226562 3.617188 -4.042969 3.523438 -3.859375 C 3.464844 -3.773438 3.394531 -3.695312 3.355469 -3.609375 C 3.289062 -3.511719 3.222656 -3.394531 3.152344 -3.300781 L 2.929688 -2.988281 L 2.746094 -2.726562 C 2.679688 -2.652344 2.632812 -2.5625 2.574219 -2.503906 C 2.488281 -2.390625 2.398438 -2.265625 2.3125 -2.167969 C 2.273438 -2.117188 2.246094 -2.070312 2.207031 -2.03125 C 2.207031 -2.042969 2.214844 -2.15625 2.246094 -2.214844 L 2.273438 -2.351562 C 2.300781 -2.398438 2.320312 -2.457031 2.351562 -2.503906 C 2.359375 -2.515625 2.351562 -2.523438 2.351562 -2.542969 C 2.351562 -2.542969 2.320312 -2.554688 2.320312 -2.5625 C 2.351562 -2.621094 2.3125 -2.699219 2.371094 -2.777344 C 2.371094 -2.777344 2.371094 -2.785156 2.378906 -2.804688 C 2.390625 -2.835938 2.398438 -2.875 2.429688 -2.921875 C 2.398438 -2.929688 2.378906 -2.988281 2.390625 -3.027344 C 2.417969 -3.097656 2.457031 -3.152344 2.46875 -3.222656 C 2.503906 -3.28125 2.515625 -3.355469 2.523438 -3.414062 C 2.542969 -3.511719 2.582031 -3.558594 2.613281 -3.65625 C 2.632812 -3.714844 2.640625 -3.773438 2.660156 -3.839844 C 2.660156 -3.859375 2.652344 -3.871094 2.652344 -3.890625 C 2.726562 -3.910156 2.710938 -4.015625 2.757812 -4.074219 L 2.816406 -4.285156 C 2.855469 -4.402344 2.894531 -4.519531 2.941406 -4.613281 C 2.960938 -4.683594 2.96875 -4.761719 2.988281 -4.816406 C 3.007812 -4.867188 3.027344 -4.886719 3.066406 -4.933594 C 3.078125 -4.972656 3.097656 -5.011719 3.105469 -5.070312 C 3.144531 -5.128906 3.171875 -5.1875 3.210938 -5.253906 C 3.25 -5.3125 3.269531 -5.378906 3.300781 -5.445312 C 3.328125 -5.503906 3.355469 -5.574219 3.375 -5.628906 C 3.445312 -5.71875 3.492188 -5.796875 3.53125 -5.863281 C 3.550781 -5.902344 3.578125 -5.949219 3.617188 -6 C 3.714844 -6.144531 3.820312 -6.289062 3.9375 -6.40625 L 4.121094 -6.589844 C 4.152344 -6.609375 4.1875 -6.617188 4.21875 -6.65625 L 4.285156 -6.734375 C 4.324219 -6.761719 4.363281 -6.773438 4.402344 -6.78125 C 4.410156 -6.78125 4.421875 -6.761719 4.421875 -6.734375 C 4.5 -6.589844 4.480469 -6.445312 4.460938 -6.289062 Z M 4.460938 -6.289062 "/></g></g></g><g fill="#ffffff" fill-opacity="1"><g transform="translate(48.753759, 17.298759)"><g><path d="M 5.824219 1.007812 L 5.667969 1.082031 C 5.535156 1.152344 5.398438 1.179688 5.292969 1.199219 C 5.15625 1.230469 5.003906 1.238281 4.847656 1.21875 C 4.796875 1.191406 4.75 1.238281 4.722656 1.179688 C 4.632812 1.191406 4.546875 1.140625 4.46875 1.113281 C 4.382812 1.0625 4.316406 1.007812 4.246094 0.957031 L 4.09375 0.8125 C 4.0625 0.792969 3.996094 0.753906 3.984375 0.707031 C 3.890625 0.609375 3.8125 0.492188 3.726562 0.386719 L 3.648438 0.269531 C 3.628906 0.261719 3.617188 0.261719 3.609375 0.25 C 3.609375 0.195312 3.558594 0.15625 3.550781 0.105469 C 3.484375 -0.0078125 3.414062 -0.105469 3.335938 -0.242188 C 3.28125 -0.347656 3.230469 -0.453125 3.203125 -0.53125 C 3.171875 -0.609375 3.132812 -0.648438 3.105469 -0.714844 L 3.039062 -0.824219 C 3.027344 -0.859375 3.007812 -0.898438 2.949219 -0.976562 C 2.929688 -1.015625 2.921875 -1.0625 2.894531 -1.101562 C 2.875 -1.132812 2.875 -1.171875 2.84375 -1.21875 C 2.757812 -1.335938 2.699219 -1.433594 2.660156 -1.527344 C 2.660156 -1.527344 2.84375 -1.625 2.835938 -1.625 C 2.875 -1.636719 2.914062 -1.636719 2.921875 -1.65625 C 2.949219 -1.710938 3 -1.722656 3.039062 -1.722656 C 3.058594 -1.742188 3.078125 -1.742188 3.105469 -1.769531 L 3.058594 -1.769531 C 3.125 -1.828125 3.183594 -1.867188 3.269531 -1.914062 C 3.347656 -1.964844 3.375 -1.972656 3.386719 -1.992188 C 3.445312 -2.011719 3.445312 -2.042969 3.484375 -2.0625 C 3.503906 -2.082031 3.53125 -2.089844 3.558594 -2.136719 C 3.570312 -2.1875 3.667969 -2.175781 3.6875 -2.234375 C 3.707031 -2.265625 3.78125 -2.320312 3.871094 -2.339844 C 3.9375 -2.398438 4.003906 -2.4375 4.113281 -2.523438 L 4.179688 -2.59375 C 4.277344 -2.601562 4.285156 -2.652344 4.316406 -2.71875 C 4.375 -2.679688 4.402344 -2.71875 4.429688 -2.746094 C 4.429688 -2.765625 4.449219 -2.765625 4.480469 -2.777344 L 4.652344 -2.929688 C 4.722656 -2.980469 4.816406 -3 4.875 -3.066406 C 4.933594 -3.125 5.136719 -3.210938 5.261719 -3.269531 C 5.320312 -3.300781 5.390625 -3.328125 5.59375 -3.375 C 5.601562 -3.414062 5.601562 -3.464844 5.613281 -3.511719 C 5.660156 -3.597656 5.660156 -3.597656 5.554688 -3.648438 C 5.554688 -3.65625 5.554688 -3.675781 5.496094 -3.6875 L 5.378906 -3.6875 L 5.214844 -3.636719 C 5.1875 -3.617188 5.148438 -3.609375 5.097656 -3.589844 C 4.984375 -3.542969 4.691406 -3.386719 4.480469 -3.269531 C 4.34375 -3.191406 4.199219 -3.058594 4.003906 -2.949219 C 4.023438 -2.929688 4.023438 -2.929688 4.023438 -2.921875 C 4.023438 -2.921875 3.996094 -2.921875 4.003906 -2.894531 C 3.9375 -2.894531 3.695312 -2.71875 3.589844 -2.640625 C 3.511719 -2.582031 3.144531 -2.332031 3 -2.226562 C 2.894531 -2.148438 2.746094 -2.042969 2.601562 -1.945312 C 2.515625 -1.894531 2.457031 -1.839844 2.371094 -1.78125 L 2.253906 -1.730469 C 2.359375 -2.03125 2.496094 -2.320312 2.621094 -2.632812 C 2.71875 -2.902344 2.816406 -3.132812 2.894531 -3.425781 C 2.921875 -3.53125 2.929688 -3.589844 2.949219 -3.714844 C 2.96875 -3.78125 2.96875 -3.910156 2.960938 -3.984375 C 2.914062 -4.199219 2.777344 -4.539062 2.070312 -4.5 C 1.859375 -4.480469 1.75 -4.363281 1.585938 -4.296875 C 1.5 -4.238281 1.421875 -4.179688 1.335938 -4.09375 C 1.34375 -4.0625 1.324219 -4.023438 1.316406 -4.015625 L 1.257812 -3.976562 L 1.179688 -3.871094 C 1.082031 -3.714844 0.96875 -3.65625 0.910156 -3.542969 C 0.832031 -3.425781 0.726562 -3.300781 0.65625 -3.164062 C 0.628906 -3.097656 0.601562 -3.027344 0.589844 -2.96875 C 0.570312 -2.875 0.628906 -2.796875 0.6875 -2.746094 C 0.773438 -2.726562 0.871094 -2.746094 0.871094 -2.757812 C 0.890625 -2.804688 0.898438 -2.84375 0.910156 -2.882812 C 0.949219 -2.960938 0.996094 -3.058594 1.027344 -3.132812 C 1.054688 -3.191406 1.101562 -3.269531 1.140625 -3.328125 L 1.257812 -3.472656 C 1.277344 -3.492188 1.277344 -3.523438 1.285156 -3.53125 C 1.355469 -3.570312 1.421875 -3.597656 1.433594 -3.675781 L 1.453125 -3.734375 C 1.453125 -3.726562 1.539062 -3.839844 1.617188 -3.910156 C 1.644531 -3.9375 1.671875 -3.957031 1.722656 -3.996094 C 2.003906 -4.238281 2.148438 -4.265625 2.300781 -4.246094 C 2.371094 -4.238281 2.496094 -4.152344 2.488281 -4.003906 C 2.476562 -3.839844 2.449219 -3.589844 2.390625 -3.425781 C 2.285156 -3.132812 2.214844 -2.835938 2.109375 -2.554688 C 2.0625 -2.429688 2.023438 -2.300781 1.984375 -2.207031 C 1.964844 -2.175781 1.730469 -1.480469 1.722656 -1.453125 C 1.691406 -1.324219 1.671875 -1.277344 1.644531 -1.160156 L 1.617188 -1.101562 C 1.546875 -0.824219 1.519531 -0.714844 1.480469 -0.542969 C 1.375 -0.078125 1.316406 0.0976562 1.25 0.609375 C 1.199219 0.957031 1.683594 0.890625 1.691406 0.804688 C 1.75 0.320312 1.769531 0.0976562 1.894531 -0.398438 C 1.925781 -0.511719 1.953125 -0.65625 1.972656 -0.746094 L 2.167969 -1.394531 L 2.195312 -1.394531 L 2.542969 -0.773438 C 2.574219 -0.667969 2.652344 -0.550781 2.691406 -0.445312 C 2.746094 -0.398438 2.746094 -0.378906 2.777344 -0.328125 C 2.796875 -0.320312 2.84375 -0.320312 2.816406 -0.28125 C 2.804688 -0.28125 2.816406 -0.25 2.824219 -0.230469 C 2.863281 -0.230469 2.863281 -0.222656 2.863281 -0.203125 C 2.863281 -0.164062 2.882812 -0.117188 2.894531 -0.0859375 C 2.929688 -0.046875 2.929688 0 2.980469 0.0273438 C 3 0.0585938 3.027344 0.105469 3.039062 0.15625 C 3.058594 0.183594 3.058594 0.242188 3.105469 0.261719 L 3.171875 0.398438 C 3.171875 0.398438 3.191406 0.417969 3.203125 0.417969 C 3.222656 0.484375 3.261719 0.425781 3.28125 0.453125 C 3.25 0.453125 3.261719 0.472656 3.25 0.472656 L 3.261719 0.53125 C 3.300781 0.542969 3.335938 0.550781 3.375 0.570312 L 3.355469 0.570312 C 3.367188 0.601562 3.347656 0.609375 3.347656 0.628906 C 3.347656 0.648438 3.367188 0.667969 3.394531 0.707031 C 3.40625 0.707031 3.492188 0.8125 3.492188 0.839844 L 3.550781 0.917969 L 3.726562 1.082031 L 3.851562 1.160156 L 3.851562 1.171875 L 3.964844 1.25 C 4.015625 1.257812 4.0625 1.296875 4.082031 1.304688 C 4.429688 1.46875 4.539062 1.480469 4.886719 1.480469 C 5.050781 1.480469 5.222656 1.441406 5.300781 1.421875 C 5.410156 1.382812 5.496094 1.375 5.5625 1.335938 C 5.613281 1.316406 5.648438 1.304688 5.667969 1.277344 L 5.496094 1.296875 L 5.484375 1.277344 C 5.667969 1.179688 5.726562 1.179688 5.824219 1.09375 Z M 5.824219 1.007812 "/></g></g></g><g fill="#ffffff" fill-opacity="1"><g transform="translate(54.083911, 17.298759)"><g><path d="M 2.699219 0.261719 L 2.929688 0.230469 C 3.066406 0.175781 3.203125 0.144531 3.320312 0 C 3.320312 0 3.308594 0 3.308594 -0.0078125 L 3.40625 -0.144531 C 3.453125 -0.144531 3.523438 -0.203125 3.523438 -0.25 C 3.53125 -0.300781 3.550781 -0.339844 3.597656 -0.339844 C 3.617188 -0.339844 3.636719 -0.347656 3.675781 -0.347656 C 3.636719 -0.359375 3.628906 -0.367188 3.617188 -0.378906 C 3.65625 -0.398438 3.628906 -0.433594 3.675781 -0.453125 C 3.707031 -0.472656 3.78125 -0.484375 3.746094 -0.550781 L 3.78125 -0.570312 C 3.792969 -0.667969 3.871094 -0.707031 3.917969 -0.765625 C 3.957031 -0.8125 3.964844 -0.898438 3.859375 -0.898438 L 3.726562 -0.773438 C 3.550781 -0.628906 3.367188 -0.492188 3.183594 -0.367188 C 3.085938 -0.300781 2.988281 -0.230469 2.882812 -0.183594 C 2.71875 -0.105469 2.457031 -0.0390625 2.351562 -0.144531 C 2.332031 -0.175781 2.320312 -0.203125 2.3125 -0.242188 C 2.265625 -0.433594 2.292969 -0.628906 2.371094 -0.8125 C 2.390625 -0.890625 2.417969 -0.957031 2.46875 -1.015625 C 2.523438 -1.179688 2.253906 -1.21875 2.253906 -1.257812 L 2.050781 -1.257812 C 2.023438 -1.238281 2.003906 -1.21875 1.992188 -1.199219 C 1.933594 -1.140625 1.886719 -1.074219 1.828125 -1.015625 C 1.730469 -0.917969 1.644531 -0.804688 1.546875 -0.707031 C 1.441406 -0.601562 1.363281 -0.503906 1.257812 -0.40625 C 1.179688 -0.339844 1.132812 -0.269531 0.996094 -0.195312 C 0.9375 -0.15625 0.859375 -0.136719 0.804688 -0.164062 C 0.726562 -0.210938 0.765625 -0.347656 0.804688 -0.433594 C 0.832031 -0.503906 0.9375 -0.707031 0.988281 -0.824219 C 1.09375 -1.0625 1.152344 -1.199219 1.074219 -1.335938 C 1.042969 -1.382812 0.96875 -1.402344 0.917969 -1.441406 C 0.851562 -1.460938 0.785156 -1.460938 0.707031 -1.441406 C 0.648438 -1.421875 0.601562 -1.394531 0.5625 -1.363281 C 0.53125 -1.34375 0.492188 -1.324219 0.472656 -1.285156 C 0.464844 -1.238281 0.503906 -1.191406 0.542969 -1.121094 C 0.570312 -1.09375 0.648438 -1.101562 0.746094 -1.132812 C 0.773438 -1.0625 0.503906 -0.765625 0.425781 -0.484375 C 0.378906 -0.320312 0.367188 -0.203125 0.464844 -0.0195312 C 0.492188 0.0390625 0.734375 0.261719 0.839844 0.25 C 0.988281 0.242188 1.101562 0.15625 1.238281 0.0976562 C 1.46875 -0.0976562 1.683594 -0.300781 1.859375 -0.492188 C 1.875 -0.464844 1.886719 -0.453125 1.875 -0.433594 C 1.90625 -0.378906 1.925781 -0.320312 1.964844 -0.261719 C 1.972656 -0.242188 1.992188 -0.222656 2.011719 -0.195312 C 2.042969 -0.117188 2.070312 -0.0390625 2.167969 0 C 2.226562 0.0195312 2.273438 0.046875 2.3125 0.105469 C 2.3125 0.125 2.359375 0.144531 2.398438 0.164062 C 2.429688 0.175781 2.46875 0.195312 2.496094 0.210938 C 2.535156 0.210938 2.574219 0.230469 2.621094 0.25 C 2.652344 0.261719 2.671875 0.25 2.699219 0.261719 Z M 2.699219 0.261719 "/></g></g></g><g fill="#ffffff" fill-opacity="1"><g transform="translate(57.827591, 17.298759)"><g><path d="M 3.125 0.96875 C 3.183594 0.898438 3.183594 0.878906 3.183594 0.851562 C 3.203125 0.832031 3.222656 0.824219 3.222656 0.804688 C 3.242188 0.765625 3.203125 0.695312 3.183594 0.714844 C 3.046875 0.765625 2.96875 0.714844 2.914062 0.601562 C 2.863281 0.417969 2.863281 0.378906 2.84375 0.320312 C 2.824219 0.242188 2.824219 0.15625 2.816406 0.0664062 C 2.824219 0.0078125 2.785156 -0.0585938 2.824219 -0.117188 L 2.824219 -0.164062 C 2.824219 -0.210938 2.824219 -0.261719 2.816406 -0.289062 C 2.824219 -0.359375 2.824219 -0.453125 2.738281 -0.453125 L 2.679688 -0.542969 C 2.582031 -0.582031 2.542969 -0.628906 2.449219 -0.65625 C 2.429688 -0.675781 2.378906 -0.667969 2.351562 -0.65625 C 2.273438 -0.589844 2.234375 -0.570312 2.195312 -0.542969 C 2.128906 -0.503906 2.0625 -0.453125 2.003906 -0.40625 C 1.894531 -0.320312 1.742188 -0.164062 1.617188 -0.0585938 C 1.636719 -0.164062 1.65625 -0.378906 1.683594 -0.453125 C 1.722656 -0.53125 1.703125 -0.621094 1.710938 -0.707031 C 1.722656 -0.734375 1.710938 -0.773438 1.703125 -0.792969 C 1.683594 -0.871094 1.703125 -0.949219 1.671875 -1.015625 C 1.636719 -1.015625 1.605469 -1.035156 1.566406 -1.015625 C 1.46875 -0.988281 1.382812 -1.027344 1.324219 -1.09375 C 1.285156 -1.121094 1.257812 -1.132812 1.21875 -1.101562 C 1.140625 -1.042969 1.082031 -0.96875 1.015625 -0.898438 C 0.910156 -0.792969 0.839844 -0.648438 0.753906 -0.542969 C 0.628906 -0.328125 0.582031 -0.261719 0.550781 -0.203125 C 0.542969 -0.195312 0.523438 -0.183594 0.492188 -0.175781 C 0.511719 -0.28125 0.628906 -0.582031 0.636719 -0.65625 C 0.675781 -0.792969 0.695312 -0.917969 0.714844 -1.042969 C 0.746094 -1.140625 0.753906 -1.25 0.734375 -1.34375 C 0.714844 -1.433594 0.667969 -1.453125 0.601562 -1.46875 C 0.542969 -1.488281 0.511719 -1.488281 0.433594 -1.5 C 0.433594 -1.480469 0.398438 -1.441406 0.40625 -1.421875 C 0.425781 -1.382812 0.40625 -1.335938 0.40625 -1.285156 C 0.359375 -1.101562 0.328125 -0.910156 0.28125 -0.726562 C 0.195312 -0.40625 0.125 -0.0859375 0.0976562 0.242188 C 0.0859375 0.347656 0.105469 0.445312 0.164062 0.523438 L 0.289062 0.601562 L 0.367188 0.542969 C 0.378906 0.511719 0.398438 0.492188 0.417969 0.484375 C 0.453125 0.445312 0.511719 0.425781 0.542969 0.378906 C 0.628906 0.242188 0.707031 0.105469 0.804688 -0.0273438 L 0.859375 -0.15625 L 1.007812 -0.339844 C 1.054688 -0.40625 1.160156 -0.53125 1.277344 -0.675781 C 1.296875 -0.648438 1.304688 -0.628906 1.296875 -0.621094 C 1.277344 -0.472656 1.230469 -0.195312 1.210938 -0.0585938 L 1.265625 0.15625 C 1.265625 0.175781 1.304688 0.195312 1.316406 0.210938 C 1.324219 0.242188 1.355469 0.242188 1.355469 0.261719 C 1.363281 0.300781 1.382812 0.320312 1.421875 0.308594 L 1.527344 0.359375 C 1.578125 0.367188 1.605469 0.378906 1.636719 0.378906 L 1.703125 0.320312 C 1.78125 0.261719 1.875 0.230469 1.945312 0.144531 C 2.050781 0.0195312 2.1875 -0.078125 2.3125 -0.203125 C 2.320312 -0.210938 2.339844 -0.210938 2.339844 -0.230469 C 2.398438 -0.28125 2.429688 -0.289062 2.457031 -0.28125 L 2.46875 -0.0664062 C 2.457031 0.0273438 2.488281 0.164062 2.488281 0.289062 C 2.496094 0.425781 2.554688 0.550781 2.574219 0.636719 C 2.621094 0.753906 2.691406 0.859375 2.777344 0.910156 C 2.863281 0.988281 3.085938 0.988281 3.125 0.96875 Z M 3.125 0.96875 "/></g></g></g><g fill="#ffffff" fill-opacity="1"><g transform="translate(61.377803, 17.298759)"><g><path d="M 3.667969 -1.285156 L 3.628906 -1.375 L 3.597656 -1.394531 C 3.503906 -1.335938 3.425781 -1.285156 3.355469 -1.230469 C 3.132812 -1.082031 3.152344 -1.101562 2.921875 -0.957031 C 2.785156 -0.859375 2.640625 -0.773438 2.515625 -0.695312 C 2.378906 -0.601562 2.226562 -0.484375 2.070312 -0.417969 C 2.03125 -0.398438 1.992188 -0.398438 1.964844 -0.386719 C 1.933594 -0.378906 1.914062 -0.378906 1.894531 -0.386719 C 1.847656 -0.417969 1.820312 -0.453125 1.808594 -0.492188 C 1.75 -0.628906 1.75 -0.773438 1.78125 -0.910156 C 1.789062 -0.929688 1.789062 -0.949219 1.800781 -0.957031 C 1.828125 -1.035156 1.820312 -1.140625 1.820312 -1.140625 C 1.800781 -1.210938 1.761719 -1.257812 1.703125 -1.277344 C 1.585938 -1.285156 1.519531 -1.210938 1.441406 -1.199219 C 1.488281 -1.296875 1.566406 -1.382812 1.539062 -1.519531 C 1.5 -1.742188 1.265625 -1.78125 1.0625 -1.820312 C 0.878906 -1.800781 0.714844 -1.683594 0.601562 -1.558594 C 0.484375 -1.414062 0.359375 -1.296875 0.25 -1.132812 C 0.230469 -1.113281 0.210938 -1.0625 0.175781 -1.015625 L 0.105469 -0.898438 C 0.0859375 -0.832031 0.0585938 -0.785156 0.046875 -0.726562 C 0.046875 -0.714844 0.046875 -0.714844 0.0390625 -0.707031 C 0.0195312 -0.648438 0 -0.601562 -0.0273438 -0.53125 C -0.0664062 -0.386719 -0.0390625 -0.261719 0.046875 -0.144531 C 0.105469 -0.117188 0.183594 -0.0664062 0.203125 -0.046875 C 0.230469 -0.0390625 0.261719 -0.0390625 0.28125 -0.0390625 C 0.425781 0.0195312 0.589844 0.0195312 0.746094 -0.0585938 C 0.898438 -0.125 1.054688 -0.25 1.171875 -0.339844 C 1.191406 -0.347656 1.199219 -0.378906 1.21875 -0.398438 C 1.285156 -0.398438 1.285156 -0.492188 1.355469 -0.53125 C 1.363281 -0.511719 1.363281 -0.492188 1.382812 -0.484375 C 1.414062 -0.433594 1.402344 -0.417969 1.460938 -0.359375 C 1.5 -0.269531 1.566406 -0.230469 1.625 -0.15625 C 1.65625 -0.144531 1.671875 -0.105469 1.703125 -0.0976562 C 1.722656 -0.078125 1.78125 -0.078125 1.800781 -0.0664062 C 1.839844 -0.0585938 1.925781 -0.078125 1.964844 -0.078125 C 1.992188 -0.078125 2.042969 -0.0976562 2.050781 -0.0976562 C 2.082031 -0.0976562 2.128906 -0.117188 2.148438 -0.125 C 2.195312 -0.15625 2.226562 -0.144531 2.285156 -0.175781 C 2.378906 -0.242188 2.46875 -0.261719 2.542969 -0.347656 L 2.777344 -0.523438 L 2.921875 -0.648438 C 2.949219 -0.65625 3.019531 -0.734375 3.027344 -0.746094 C 3.078125 -0.765625 3.117188 -0.8125 3.144531 -0.839844 C 3.171875 -0.859375 3.242188 -0.890625 3.289062 -0.929688 C 3.414062 -1.015625 3.570312 -1.140625 3.667969 -1.285156 Z M 1.304688 -1.015625 C 1.160156 -0.859375 1.09375 -0.746094 0.949219 -0.589844 C 0.851562 -0.484375 0.765625 -0.417969 0.636719 -0.367188 C 0.542969 -0.328125 0.367188 -0.320312 0.261719 -0.320312 C 0.308594 -0.511719 0.398438 -0.675781 0.484375 -0.832031 C 0.589844 -1.015625 0.929688 -1.46875 1.21875 -1.519531 C 1.210938 -1.507812 1.132812 -1.082031 1.34375 -1.0625 L 1.355469 -1.0625 C 1.355469 -1.0625 1.316406 -1.015625 1.304688 -1.015625 Z M 1.304688 -1.015625 "/></g></g></g><g fill="#ffffff" fill-opacity="1"><g transform="translate(64.512051, 17.298759)"><g><path d="M 0.210938 0.175781 C 0.289062 0.203125 0.328125 0.183594 0.347656 0.0664062 C 0.367188 0 0.367188 -0.0664062 0.386719 -0.136719 C 0.417969 -0.222656 0.425781 -0.308594 0.464844 -0.40625 C 0.523438 -0.523438 0.601562 -0.628906 0.65625 -0.765625 C 0.726562 -0.878906 0.804688 -0.976562 0.871094 -1.074219 L 1.054688 -1.316406 C 1.101562 -1.363281 1.160156 -1.414062 1.21875 -1.460938 C 1.238281 -1.488281 1.257812 -1.527344 1.285156 -1.539062 C 1.34375 -1.578125 1.402344 -1.597656 1.441406 -1.644531 C 1.5 -1.691406 1.558594 -1.683594 1.617188 -1.683594 C 1.742188 -1.625 1.800781 -1.65625 1.800781 -1.65625 L 1.808594 -1.703125 C 1.789062 -1.75 1.769531 -1.789062 1.730469 -1.820312 C 1.710938 -1.820312 1.703125 -1.839844 1.691406 -1.847656 C 1.65625 -1.886719 1.605469 -1.925781 1.558594 -1.964844 C 1.441406 -2.03125 1.304688 -2.03125 1.179688 -1.933594 C 1.074219 -1.867188 0.96875 -1.789062 0.878906 -1.664062 C 0.8125 -1.597656 0.753906 -1.546875 0.707031 -1.460938 C 0.695312 -1.433594 0.65625 -1.402344 0.628906 -1.363281 C 0.628906 -1.414062 0.648438 -1.441406 0.648438 -1.46875 C 0.65625 -1.558594 0.648438 -1.644531 0.621094 -1.722656 C 0.582031 -1.867188 0.503906 -1.914062 0.40625 -1.875 C 0.378906 -1.875 0.339844 -1.859375 0.320312 -1.828125 C 0.308594 -1.820312 0.308594 -1.78125 0.300781 -1.761719 C 0.28125 -1.625 0.25 -1.5 0.230469 -1.363281 C 0.210938 -1.238281 0.164062 -1.101562 0.144531 -0.96875 C 0.144531 -0.859375 0.105469 -0.753906 0.0859375 -0.648438 L 0.0078125 -0.25 C -0.0195312 -0.125 0.0273438 -0.0273438 0.0664062 0.0664062 C 0.144531 0.105469 0.15625 0.144531 0.210938 0.175781 Z M 0.210938 0.175781 "/></g></g></g><g fill="#ffffff" fill-opacity="1"><g transform="translate(32.543424, 16.801969)"><g><path d="M 1 -0.4375 L 1 -0.265625 L 0.109375 -0.671875 L 0.109375 -0.796875 L 1 -1.203125 L 1 -1.03125 L 0.34375 -0.75 L 0.34375 -0.71875 Z M 1 -0.4375 "/></g></g><g transform="translate(33.677592, 16.801969)"><g/></g><g transform="translate(34.199454, 16.801969)"><g><path d="M 1.125 -1.515625 L 1.125 -1.375 L 0.40625 -1.375 L 0.40625 -0.8125 L 1.046875 -0.8125 L 1.046875 -0.671875 L 0.40625 -0.671875 L 0.40625 0 L 0.234375 0 L 0.234375 -1.515625 Z M 1.125 -1.515625 "/></g></g><g transform="translate(35.404312, 16.801969)"><g><path d="M 0.203125 0 L 0.203125 -1.140625 L 0.359375 -1.140625 L 0.359375 -0.96875 L 0.375 -0.953125 C 0.4375 -1.085938 0.539062 -1.15625 0.6875 -1.15625 C 0.757812 -1.15625 0.816406 -1.140625 0.859375 -1.109375 L 0.8125 -0.96875 L 0.796875 -0.96875 C 0.753906 -0.988281 0.707031 -1 0.65625 -1 C 0.5625 -1 0.488281 -0.960938 0.4375 -0.890625 C 0.394531 -0.828125 0.375 -0.71875 0.375 -0.5625 L 0.375 0 Z M 0.203125 0 "/></g></g><g transform="translate(36.290022, 16.801969)"><g><path d="M 0.65625 0.015625 C 0.550781 0.015625 0.457031 -0.00390625 0.375 -0.046875 C 0.289062 -0.0859375 0.226562 -0.148438 0.1875 -0.234375 C 0.144531 -0.328125 0.125 -0.441406 0.125 -0.578125 C 0.125 -0.703125 0.144531 -0.804688 0.1875 -0.890625 C 0.226562 -0.984375 0.289062 -1.050781 0.375 -1.09375 C 0.457031 -1.144531 0.550781 -1.171875 0.65625 -1.171875 C 0.757812 -1.171875 0.851562 -1.144531 0.9375 -1.09375 C 1.019531 -1.050781 1.082031 -0.984375 1.125 -0.890625 C 1.164062 -0.804688 1.1875 -0.703125 1.1875 -0.578125 C 1.1875 -0.441406 1.164062 -0.328125 1.125 -0.234375 C 1.082031 -0.148438 1.019531 -0.0859375 0.9375 -0.046875 C 0.851562 -0.00390625 0.757812 0.015625 0.65625 0.015625 Z M 0.65625 -0.125 C 0.769531 -0.125 0.859375 -0.160156 0.921875 -0.234375 C 0.984375 -0.304688 1.015625 -0.421875 1.015625 -0.578125 C 1.015625 -0.722656 0.984375 -0.832031 0.921875 -0.90625 C 0.859375 -0.976562 0.769531 -1.015625 0.65625 -1.015625 C 0.539062 -1.015625 0.453125 -0.976562 0.390625 -0.90625 C 0.328125 -0.832031 0.296875 -0.722656 0.296875 -0.578125 C 0.296875 -0.421875 0.328125 -0.304688 0.390625 -0.234375 C 0.453125 -0.160156 0.539062 -0.125 0.65625 -0.125 Z M 0.65625 -0.125 "/></g></g><g transform="translate(37.606114, 16.801969)"><g><path d="M 0.203125 0 L 0.203125 -1.140625 L 0.359375 -1.140625 L 0.359375 -0.96875 L 0.375 -0.953125 C 0.414062 -1.023438 0.460938 -1.078125 0.515625 -1.109375 C 0.578125 -1.148438 0.65625 -1.171875 0.75 -1.171875 C 0.882812 -1.171875 0.984375 -1.132812 1.046875 -1.0625 C 1.109375 -0.988281 1.140625 -0.878906 1.140625 -0.734375 L 1.140625 0 L 0.96875 0 L 0.96875 -0.734375 C 0.96875 -0.804688 0.957031 -0.863281 0.9375 -0.90625 C 0.925781 -0.945312 0.898438 -0.972656 0.859375 -0.984375 C 0.816406 -1.003906 0.769531 -1.015625 0.71875 -1.015625 C 0.613281 -1.015625 0.53125 -0.976562 0.46875 -0.90625 C 0.40625 -0.84375 0.375 -0.738281 0.375 -0.59375 L 0.375 0 Z M 0.203125 0 "/></g></g><g transform="translate(38.926363, 16.801969)"><g><path d="M 0.78125 -0.1875 L 0.828125 -0.0625 C 0.796875 -0.03125 0.757812 -0.0078125 0.71875 0 C 0.675781 0.0078125 0.628906 0.015625 0.578125 0.015625 C 0.359375 0.015625 0.25 -0.09375 0.25 -0.3125 L 0.25 -1 L 0.046875 -1 L 0.046875 -1.140625 L 0.25 -1.140625 L 0.25 -1.390625 L 0.421875 -1.421875 L 0.421875 -1.140625 L 0.78125 -1.140625 L 0.78125 -1 L 0.421875 -1 L 0.421875 -0.328125 C 0.421875 -0.191406 0.476562 -0.125 0.59375 -0.125 C 0.65625 -0.125 0.707031 -0.144531 0.75 -0.1875 Z M 0.78125 -0.1875 "/></g></g><g transform="translate(39.799599, 16.801969)"><g/></g><g transform="translate(40.321461, 16.801969)"><g><path d="M 0.40625 -0.71875 L 0.40625 -0.140625 L 1.1875 -0.140625 L 1.1875 0 L 0.234375 0 L 0.234375 -1.515625 L 1.171875 -1.515625 L 1.171875 -1.375 L 0.40625 -1.375 L 0.40625 -0.859375 L 1.078125 -0.859375 L 1.078125 -0.71875 Z M 0.40625 -0.71875 "/></g></g><g transform="translate(41.605326, 16.801969)"><g><path d="M 0.203125 0 L 0.203125 -1.140625 L 0.359375 -1.140625 L 0.359375 -0.96875 L 0.375 -0.953125 C 0.414062 -1.023438 0.460938 -1.078125 0.515625 -1.109375 C 0.578125 -1.148438 0.65625 -1.171875 0.75 -1.171875 C 0.882812 -1.171875 0.984375 -1.132812 1.046875 -1.0625 C 1.109375 -0.988281 1.140625 -0.878906 1.140625 -0.734375 L 1.140625 0 L 0.96875 0 L 0.96875 -0.734375 C 0.96875 -0.804688 0.957031 -0.863281 0.9375 -0.90625 C 0.925781 -0.945312 0.898438 -0.972656 0.859375 -0.984375 C 0.816406 -1.003906 0.769531 -1.015625 0.71875 -1.015625 C 0.613281 -1.015625 0.53125 -0.976562 0.46875 -0.90625 C 0.40625 -0.84375 0.375 -0.738281 0.375 -0.59375 L 0.375 0 Z M 0.203125 0 "/></g></g><g transform="translate(42.925576, 16.801969)"><g><path d="M 0.59375 0.015625 C 0.5 0.015625 0.414062 -0.00390625 0.34375 -0.046875 C 0.28125 -0.0859375 0.226562 -0.148438 0.1875 -0.234375 C 0.144531 -0.328125 0.125 -0.441406 0.125 -0.578125 C 0.125 -0.703125 0.144531 -0.804688 0.1875 -0.890625 C 0.226562 -0.984375 0.285156 -1.050781 0.359375 -1.09375 C 0.429688 -1.144531 0.515625 -1.171875 0.609375 -1.171875 C 0.691406 -1.171875 0.757812 -1.15625 0.8125 -1.125 C 0.875 -1.09375 0.925781 -1.046875 0.96875 -0.984375 L 1 -0.984375 L 1 -1.609375 L 1.171875 -1.609375 L 1.171875 0 L 1 0 L 1 -0.171875 L 0.96875 -0.171875 C 0.9375 -0.117188 0.890625 -0.0703125 0.828125 -0.03125 C 0.765625 0 0.6875 0.015625 0.59375 0.015625 Z M 0.640625 -0.125 C 0.753906 -0.125 0.84375 -0.160156 0.90625 -0.234375 C 0.96875 -0.304688 1 -0.421875 1 -0.578125 C 1 -0.722656 0.96875 -0.832031 0.90625 -0.90625 C 0.84375 -0.976562 0.753906 -1.015625 0.640625 -1.015625 C 0.535156 -1.015625 0.453125 -0.976562 0.390625 -0.90625 C 0.328125 -0.832031 0.296875 -0.722656 0.296875 -0.578125 C 0.296875 -0.273438 0.410156 -0.125 0.640625 -0.125 Z M 0.640625 -0.125 "/></g></g><g transform="translate(44.294685, 16.801969)"><g/></g><g transform="translate(44.816547, 16.801969)"><g><path d="M 0.1875 0.21875 L 0.03125 0.21875 L 0.59375 -1.609375 L 0.75 -1.609375 Z M 0.1875 0.21875 "/></g></g><g transform="translate(45.638844, 16.801969)"><g><path d="M 1.015625 -0.671875 L 0.140625 -0.265625 L 0.140625 -0.4375 L 0.796875 -0.71875 L 0.796875 -0.75 L 0.140625 -1.03125 L 0.140625 -1.203125 L 1.015625 -0.796875 Z M 1.015625 -0.671875 "/></g></g></g></svg>